<svg width="60" height="60" viewBox="0 0 60 60" fill="none" xmlns="http://www.w3.org/2000/svg">
<path d="M8 43.5H13C15.0347 43.5 17 45.5738 17 48.5C17 51.4262 15.0347 53.5 13 53.5H8C5.96526 53.5 4 51.4262 4 48.5C4 45.5738 5.96526 43.5 8 43.5Z" fill="#BC263A" stroke="#380D1A" stroke-width="2"/>
<path d="M28 37.5H33C35.0347 37.5 37 39.5738 37 42.5V48.5C37 51.4262 35.0347 53.5 33 53.5H28C25.9653 53.5 24 51.4262 24 48.5V42.5C24 39.5738 25.9653 37.5 28 37.5Z" fill="#BC263A" stroke="#380D1A" stroke-width="2"/>
<path d="M48 25.5H53C55.0076 25.5 57 27.6307 57 30.7V49.3C57 52.3693 55.0076 54.5 53 54.5H48C45.9924 54.5 44 52.3693 44 49.3V30.7C44 27.6307 45.9924 25.5 48 25.5Z" fill="#BC263A" stroke="#380D1A" stroke-width="2"/>
<path d="M42.2504 12.661L42.8709 11.9567L42.2071 11.2929L37.4571 6.54289C36.5417 5.62744 37.2046 4 38.5 4H55C55.5323 4 55.8689 4.17459 56.0485 4.36795C56.2157 4.5481 56.3448 4.84814 56.2636 5.3356L56.25 5.41724V5.5V21.75C56.25 23.0454 54.6226 23.7083 53.7071 22.7929L49.2071 18.2929L48.4845 17.5702L47.7777 18.3084C36.7704 29.805 21.5668 34.5 5 34.5C4.47725 34.5 4.11933 34.3301 3.89461 34.1054C3.66989 33.8807 3.5 33.5227 3.5 33C3.5 32.4772 3.66989 32.1193 3.89461 31.8946C4.11933 31.6699 4.47725 31.5 5 31.5C19.3755 31.5 32.878 23.2999 42.2504 12.661Z" fill="#BC263A" stroke="#380D1A" stroke-width="2"/>
</svg>
