<svg width="60" height="60" viewBox="0 0 60 60" fill="none" xmlns="http://www.w3.org/2000/svg">
<path d="M59.7815 35.251C59.5896 36.0699 59.4457 36.9082 59.2059 37.7079C58.5249 40.0011 57.2875 41.9474 55.5416 43.5757C53.7862 45.2233 51.7335 46.3121 49.3929 46.8228C47.0428 47.3334 44.7118 47.2274 42.4001 46.4663C39.5032 45.5028 37.2298 43.7299 35.5127 41.2248C34.4288 39.635 33.7573 37.8525 33.4312 35.9447C33.412 35.8483 33.3928 35.752 33.3736 35.6653C33.3736 35.6556 33.3545 35.6364 33.2969 35.5786C31.177 36.6288 29.0091 36.6384 26.8316 35.5497C26.6781 36.2337 26.5534 36.8504 26.3904 37.467C25.7381 39.8084 24.539 41.8221 22.774 43.4794C19.8771 46.2061 16.4239 47.4202 12.4814 47.0926C9.54614 46.8517 6.97538 45.6955 4.77872 43.7106C3.1672 42.2557 1.98734 40.5118 1.22954 38.4787C0.22234 35.7616 0.116824 32.9867 0.912992 30.1829C1.65161 27.5814 3.07128 25.4231 5.12405 23.6695C6.78353 22.2531 8.44302 20.8175 10.1217 19.4108C11.7716 18.0426 13.6901 17.2621 15.7812 16.8671C16.1265 16.7997 16.4814 16.8093 16.8268 16.7322C17.0474 16.684 17.2776 16.5684 17.4407 16.4143C18.1889 15.6916 18.8987 14.9304 19.6469 14.2078C21.2201 12.6758 23.0522 12.2326 25.0954 13.0805C26.2465 13.5526 27.0714 14.4101 27.5511 15.576C27.5798 15.6338 27.599 15.6916 27.6374 15.7494C27.6566 15.788 27.6853 15.8265 27.7429 15.9036C29.2969 15.0268 30.87 15.0172 32.472 15.9036C32.6446 15.576 32.7789 15.2677 32.9612 14.9786C34.6398 12.3097 38.0835 11.8568 40.3857 14.0247C41.1435 14.7377 41.9013 15.4604 42.5727 16.2505C43.0619 16.8189 43.6855 16.7418 44.2802 16.8382C46.7262 17.2429 48.8557 18.2738 50.7167 19.9118C52.1172 21.1451 53.5464 22.3591 54.9757 23.5635C57.1244 25.3846 58.6208 27.6103 59.321 30.3563C59.4937 31.05 59.6376 31.7534 59.7911 32.4568C59.7815 33.3914 59.7815 34.326 59.7815 35.251ZM4.64443 33.8731C4.66362 38.9509 8.73079 42.9205 13.6709 42.9109C18.7069 42.9013 22.7165 38.7871 22.6589 33.7382C22.6014 28.8436 18.7165 24.8161 13.6325 24.7968C8.66364 24.7679 4.61565 28.911 4.64443 33.8731ZM46.5344 42.9205C51.4361 42.882 55.4937 39.0183 55.5704 33.9117C55.6472 28.9881 51.5704 24.7776 46.6015 24.7968C41.5463 24.8065 37.6039 28.7665 37.5367 33.825C37.4696 38.7774 41.5272 42.8531 46.5344 42.9205ZM30.0834 26.7528C28.4911 26.7624 27.1865 28.0631 27.1865 29.6529C27.1865 31.262 28.5199 32.582 30.1218 32.5724C31.7237 32.5628 33.0091 31.262 33.0091 29.6626C33.0187 28.0342 31.7142 26.7431 30.0834 26.7528Z" fill="#BC263A"/>
<path d="M8.01209 33.5839C8.19434 30.6644 10.3334 28.4869 13.2208 28.1689C14.0649 28.0726 14.6596 28.4002 14.909 29.0457C15.216 29.8454 14.7555 30.6452 13.921 30.8379C13.2879 30.9824 12.6164 31.098 12.0697 31.416C11.2159 31.8977 10.8227 32.7456 10.7459 33.738C10.6884 34.5185 10.2663 35.0484 9.68116 35.1544C8.66437 35.3278 7.96412 34.663 8.01209 33.5839Z" fill="#BC263A"/>
<path d="M46.267 28.1593C47.1399 28.1401 47.7346 28.564 47.8881 29.2481C48.0224 29.8647 47.7154 30.5103 47.1303 30.7415C46.8521 30.8475 46.5451 30.8861 46.2478 30.9342C44.7897 31.1366 43.7633 32.2254 43.6578 33.6995C43.5907 34.6727 43.0055 35.2508 42.1518 35.1833C41.4036 35.1255 40.8856 34.5378 40.9048 33.6995C40.9624 31.4353 42.478 29.1999 44.761 28.5062C45.1446 28.3906 45.5283 28.2942 45.912 28.1979C46.0559 28.1593 46.1998 28.169 46.267 28.1593Z" fill="#BC263A"/>
</svg>
