<svg width="55" height="55" viewBox="0 0 55 55" fill="none" xmlns="http://www.w3.org/2000/svg">
<g clip-path="url(#clip0_1_251)">
<path d="M27.1519 32.1885C29.8869 32.1885 32.1041 29.9714 32.1041 27.2363C32.1041 24.5013 29.8869 22.2841 27.1519 22.2841C24.4169 22.2841 22.1997 24.5013 22.1997 27.2363C22.1997 29.9714 24.4169 32.1885 27.1519 32.1885Z" fill="#20282B"/>
<path d="M27.1518 45.4477C31.039 49.2284 34.8729 51.4649 37.9614 51.4649C38.9732 51.4649 39.9316 51.2519 40.7304 50.7726C43.4994 49.1751 44.5111 45.1814 43.5526 39.4837C43.3929 38.472 43.1799 37.4602 42.9136 36.3953C43.9786 36.0758 44.9371 35.7563 45.8956 35.4368C51.2738 33.36 54.2558 30.4846 54.2558 27.3428C54.2558 24.1479 51.2738 21.2724 45.8956 19.2489C44.9371 18.8762 43.9786 18.5567 42.9136 18.2904C43.1799 17.2254 43.3929 16.2137 43.5526 15.202C44.4579 9.39776 43.4461 5.35079 40.6771 3.75331C39.8784 3.27406 38.9199 3.06107 37.9082 3.06107C34.8729 3.06107 30.9857 5.29754 27.0985 9.07826C23.2645 5.29754 19.4306 3.06107 16.3421 3.06107C15.3304 3.06107 14.3719 3.27406 13.5731 3.75331C10.8042 5.35079 9.79242 9.34451 10.7509 15.0422C10.9107 16.0539 11.1237 17.0657 11.3899 18.1307C10.3249 18.4502 9.36642 18.7697 8.40793 19.0892C3.02973 21.1659 0.04776 24.0414 0.04776 27.1831C0.04776 30.3781 3.02973 33.2535 8.40793 35.277C9.36642 35.6498 10.3249 35.9693 11.3899 36.2355C11.1237 37.3005 10.9107 38.3122 10.7509 39.324C9.84567 45.0217 10.8574 49.0686 13.5731 50.6129C14.3719 51.0921 15.3304 51.3051 16.3421 51.3051C19.4306 51.4116 23.2645 49.1751 27.1518 45.4477ZM24.1698 38.259C25.1283 38.3122 26.14 38.3122 27.1518 38.3122C28.1635 38.3122 29.1752 38.3122 30.1337 38.259C29.1752 39.537 28.1635 40.7085 27.1518 41.8267C26.14 40.7085 25.1283 39.537 24.1698 38.259ZM17.5668 32.7743C18.0993 33.6795 18.5786 34.5315 19.1643 35.3835C17.5136 35.1705 15.9694 34.9043 14.4784 34.5848C14.9576 33.147 15.4901 31.656 16.1291 30.1651C16.5551 31.0171 17.0344 31.9223 17.5668 32.7743ZM14.4784 19.9412C15.9694 19.6217 17.5136 19.3554 19.1643 19.1424C18.6318 19.9944 18.0993 20.8464 17.5668 21.7516C17.0344 22.6569 16.5551 23.5089 16.1291 24.4141C15.4369 22.8699 14.9044 21.3789 14.4784 19.9412ZM17.4071 27.2363C18.0993 25.7986 18.8448 24.3609 19.6968 22.9231C20.4956 21.5386 21.4008 20.1542 22.3061 18.7697C23.9035 18.6632 25.501 18.6099 27.1518 18.6099C28.8557 18.6099 30.4532 18.6632 31.9975 18.7697C32.956 20.1542 33.8079 21.5386 34.6067 22.9231C35.4587 24.3609 36.2042 25.7986 36.8964 27.2363C36.2042 28.6741 35.4587 30.1118 34.6067 31.5495C33.8079 32.934 32.9027 34.3185 31.9975 35.703C30.4 35.8095 28.8025 35.8628 27.1518 35.8628C25.4478 35.8628 23.8503 35.8095 22.3061 35.703C21.3476 34.3185 20.4956 32.934 19.6968 31.5495C18.8448 30.1118 18.0993 28.6741 17.4071 27.2363ZM38.2277 24.3609L36.7899 21.6984C36.2574 20.7931 35.7782 19.9412 35.1924 19.0892C36.8432 19.3022 38.3874 19.5684 39.8784 19.8879C39.3991 21.3789 38.8667 22.8699 38.2277 24.3609ZM38.2277 30.1118C38.8667 31.6028 39.3991 33.0938 39.8784 34.5315C38.3874 34.851 36.8432 35.1173 35.1924 35.3303C35.7249 34.4783 36.2574 33.6263 36.7899 32.721C37.2692 31.9223 37.7484 31.0171 38.2277 30.1118ZM39.4524 48.5894C39.0264 48.8556 38.4939 48.9621 37.9082 48.9621C35.2989 48.9621 32.0507 46.8322 28.8557 43.6372C30.4 41.9865 31.891 40.1227 33.382 38.046C35.8847 37.833 38.2809 37.4602 40.5174 36.9277C40.7836 37.8862 40.9434 38.8447 41.1031 39.8032C41.8486 44.3294 41.2629 47.5776 39.4524 48.5894ZM42.2214 20.5269C48.1853 22.2309 51.753 24.8401 51.753 27.2363C51.753 29.3131 49.3036 31.3898 44.9903 33.0405C44.1384 33.36 43.1799 33.6795 42.2214 33.9458C41.5291 31.7625 40.6771 29.5261 39.6121 27.2363C40.6771 24.9466 41.5824 22.7101 42.2214 20.5269ZM37.9614 5.51054C38.5472 5.51054 39.0264 5.61704 39.5056 5.88329C41.2629 6.89503 41.9019 10.09 41.1564 14.6695C40.9966 15.5747 40.7836 16.5332 40.5706 17.5449C38.3342 17.0657 35.9379 16.6929 33.4352 16.4267C31.9975 14.35 30.4532 12.4862 28.909 10.8355C32.104 7.69377 35.3522 5.51054 37.9614 5.51054ZM30.1337 16.2137C29.1752 16.1604 28.1635 16.1604 27.1518 16.1604C26.14 16.1604 25.1283 16.1604 24.1698 16.2137C25.1283 14.9357 26.14 13.7642 27.1518 12.646C28.1635 13.7642 29.1752 14.989 30.1337 16.2137ZM14.8511 5.88329C15.2771 5.61704 15.8096 5.51054 16.3954 5.51054C19.0046 5.51054 22.2528 7.64052 25.4478 10.8355C23.9035 12.4862 22.4126 14.35 20.9216 16.4267C18.4188 16.6397 16.0226 17.0124 13.7861 17.5449C13.5199 16.5864 13.3601 15.6279 13.2004 14.6695C12.4549 10.1432 13.0406 6.94828 14.8511 5.88329ZM12.0821 33.9458C6.1182 32.2418 2.55049 29.6326 2.55049 27.2363C2.55049 25.1596 4.99996 23.0829 9.31317 21.4321C10.1652 21.1126 11.1237 20.7932 12.0821 20.5269C12.7744 22.7101 13.6264 24.9466 14.6914 27.2363C13.6264 29.5261 12.7211 31.8158 12.0821 33.9458ZM13.2004 39.8032C13.3601 38.898 13.5731 37.9395 13.7861 36.9277C16.0226 37.407 18.4188 37.7797 20.9216 38.046C22.3593 40.1227 23.9035 41.9865 25.4478 43.6372C22.2528 46.7789 19.0046 48.9621 16.3954 48.9621C15.8096 48.9621 15.3304 48.8556 14.8511 48.5894C13.0406 47.5776 12.4549 44.3294 13.2004 39.8032Z" fill="#20282B"/>
</g>
<defs>
<clipPath id="clip0_1_251">
<rect width="54.3948" height="54.3948" fill="white"/>
</clipPath>
</defs>
</svg>
