<svg width="59" height="59" viewBox="0 0 59 59" fill="none" xmlns="http://www.w3.org/2000/svg">
<path d="M7.0934 19.4759L18.7629 51.4377C10.6 47.4827 4.97795 39.1129 4.97795 29.4324C4.97795 25.8798 5.73675 22.5227 7.0934 19.4759ZM45.9419 28.2022C45.9419 25.1785 44.8611 23.086 43.9299 21.4534C42.6882 19.4415 41.527 17.7284 41.527 15.7164C41.527 13.463 43.2286 11.3705 45.6314 11.3705C45.7349 11.3705 45.8384 11.382 45.9534 11.3935C41.596 7.40407 35.8015 4.9667 29.4321 4.9667C20.8898 4.9667 13.3708 9.34707 8.99041 15.9924C9.56526 16.0153 10.1056 16.0268 10.5655 16.0268C13.1178 16.0268 17.0843 15.7164 17.0843 15.7164C18.4065 15.6359 18.5559 17.5789 17.2453 17.7284C17.2453 17.7284 15.9231 17.8779 14.4515 17.9583L23.3617 44.4475L28.7193 28.3976L24.9138 17.9583C23.5916 17.8779 22.35 17.7284 22.35 17.7284C21.0278 17.6479 21.1888 15.6359 22.4994 15.7164C22.4994 15.7164 26.5349 16.0268 28.9378 16.0268C31.4901 16.0268 35.4566 15.7164 35.4566 15.7164C36.7787 15.6359 36.9282 17.5789 35.6175 17.7284C35.6175 17.7284 34.2954 17.8779 32.8237 17.9583L41.665 44.252L44.1023 36.1007C45.1371 32.7205 45.9419 30.2947 45.9419 28.2022ZM29.8575 31.5708L22.5224 52.8978C24.7183 53.5416 27.0292 53.8981 29.4321 53.8981C32.2834 53.8981 35.0082 53.4037 37.549 52.5069C37.48 52.4034 37.4226 52.2885 37.3766 52.1735L29.8575 31.5708ZM50.8971 17.6939C51.0005 18.4757 51.058 19.3035 51.058 20.2118C51.058 22.6951 50.5982 25.4774 49.1955 28.9725L41.7224 50.5754C49.0001 46.333 53.8863 38.4575 53.8863 29.4324C53.8863 25.1785 52.8056 21.1775 50.8971 17.6939ZM57.9448 29.4324C57.9448 45.1603 45.1486 57.945 29.4321 57.945C13.7042 57.945 0.919495 45.1488 0.919495 29.4324C0.919495 13.7044 13.7042 0.919746 29.4321 0.919746C45.1486 0.919746 57.9448 13.7044 57.9448 29.4324ZM56.6341 29.4324C56.6341 14.4288 44.4242 2.23041 29.4321 2.23041C14.4285 2.23041 2.23016 14.4288 2.23016 29.4324C2.23016 44.436 14.44 56.6343 29.4321 56.6343C44.4357 56.6343 56.6341 44.436 56.6341 29.4324Z" fill="#20282B"/>
</svg>
