<svg width="60" height="60" viewBox="0 0 60 60" fill="none" xmlns="http://www.w3.org/2000/svg">
<g clip-path="url(#clip0_2_681)">
<path d="M39.3753 5.7387H38.7253V6.3887V23.2697V23.6683L39.0807 23.849C41.8807 25.2732 44.2872 27.358 46.0175 30.0048L46.0257 30.0173L46.0345 30.0295C48.1514 32.9628 49.4049 36.6577 49.4049 40.5432C49.4049 45.7533 47.1893 50.4973 43.7104 53.9182C40.2349 57.3358 35.5064 59.4241 30.193 59.4241C24.876 59.4241 20.0487 57.3333 16.5757 53.9182C13.103 50.5033 10.9811 45.7615 10.9811 40.5432C10.9811 36.6619 12.2322 33.0562 14.2652 30.0099L14.3745 29.8461V29.7614C16.1957 27.2716 18.5665 25.242 21.3052 23.849L21.6606 23.6683V23.2697V6.3887V5.7387H21.0106H17.768V1.15H42.6179V5.7387H39.3753ZM26.9991 5.7387H26.3491V6.3887V26.6629L24.8669 27.2766C22.0525 28.3048 19.7533 30.1526 18.1825 32.5148C16.5 34.7961 15.6696 37.5804 15.6696 40.5432C15.6696 44.5437 17.2357 48.1462 19.8562 50.723L19.8561 50.7231L19.8653 50.7319C22.567 53.2864 26.116 54.9335 30.193 54.9335C34.1635 54.9335 37.816 53.2912 40.4255 50.7274C43.1507 48.1482 44.7163 44.5427 44.7163 40.5432C44.7163 37.5614 43.7759 34.7853 42.2089 32.523C40.6328 30.1494 38.2295 28.304 35.5226 27.2781L34.0368 26.6629V6.3887V5.7387H33.3868H26.9991ZM28.9953 48.5541C29.5703 48.5541 30.042 48.9849 30.042 49.5725C30.042 50.0371 29.5973 50.4929 28.9953 50.4929C28.3932 50.4929 27.9485 50.0371 27.9485 49.5725C27.9485 48.9849 28.4202 48.5541 28.9953 48.5541ZM23.0067 42.8617C24.4547 42.8617 25.6504 44.0531 25.6504 45.4504C25.6504 46.8223 24.4812 47.9411 23.0067 47.9411C21.5323 47.9411 20.3631 46.8223 20.3631 45.4504C20.3631 44.0531 21.5588 42.8617 23.0067 42.8617Z" fill="#BC263A" stroke="#270919" stroke-width="1.3"/>
</g>
<defs>
<clipPath id="clip0_2_681">
<rect width="60" height="60" fill="white"/>
</clipPath>
</defs>
</svg>
