<svg width="62" height="50" viewBox="0 0 62 50" fill="none" xmlns="http://www.w3.org/2000/svg">
<g clip-path="url(#clip0_1_267)">
<path d="M17.473 19.6621C17.4033 21.8558 18.4996 22.8272 18.5268 23.4442C18.5139 23.5698 18.4711 23.6904 18.402 23.7961C18.3329 23.9017 18.2395 23.9893 18.1297 24.0515L16.8899 24.9193C16.7295 25.0317 16.5404 25.0962 16.3447 25.1052C16.303 25.1033 15.5514 25.2825 14.3611 22.6248C13.6349 23.5313 12.7109 24.2596 11.6598 24.754C10.6088 25.2484 9.45853 25.4958 8.29716 25.4771C6.72039 25.5633 2.44724 24.5822 2.6671 20.033C2.5131 16.3255 5.96591 14.0223 9.53687 14.217C10.2245 14.2189 11.6289 14.2528 14.088 14.8243V13.3114C14.3485 10.7487 12.6643 8.76032 9.74801 9.05862C9.51556 9.05959 7.86907 9.0102 5.30827 10.0378C4.59544 10.3652 4.50439 10.3109 4.26711 10.3109C3.54943 10.3109 3.84483 8.23053 3.98236 7.96709C4.48696 7.34723 7.4555 6.18984 10.3688 6.20631C12.3168 6.03403 14.2543 6.63522 15.7626 7.87992C16.3757 8.56572 16.8434 9.36867 17.1376 10.2403C17.4317 11.1119 17.5462 12.0341 17.474 12.9511L17.473 19.6621ZM9.10297 22.7991C12.2439 22.7536 13.5737 20.865 13.8769 19.848C14.1151 18.8747 14.0754 18.2587 14.0754 17.1943C13.1388 16.9696 11.7906 16.7245 10.2439 16.7226C8.77658 16.6122 6.09666 17.2679 6.20126 19.8471C6.08116 21.4732 7.27826 22.8883 9.10297 22.7991ZM25.6571 25.0316C24.8958 25.1013 24.5413 24.5609 24.429 24.0272L19.6057 8.08041C19.5118 7.81116 19.4498 7.53319 19.4197 7.24941C19.402 7.13242 19.4313 7.01314 19.5014 6.9178C19.5715 6.82246 19.6766 6.75884 19.7936 6.74093C19.8168 6.73706 19.5873 6.74093 21.9486 6.74093C22.7989 6.6557 23.0759 7.32496 23.1641 7.7453L26.6237 21.3851L29.8353 7.7453C29.8866 7.43343 30.1201 6.67314 31.075 6.75352H32.737C32.9472 6.73609 33.8131 6.7051 33.9651 7.75789L37.2019 21.572L40.7729 7.75789C40.8194 7.54675 41.0363 6.65667 42.001 6.75352H43.9109C43.9933 6.74093 44.5066 6.67507 44.4194 7.58452C44.3778 7.7637 44.7497 6.55207 39.3104 24.0398C39.199 24.5735 38.8436 25.1139 38.0823 25.0442H36.2722C35.2126 25.1556 35.0605 24.1086 35.0441 24.003L31.8324 10.7216L28.6576 23.9895C28.6421 24.095 28.49 25.142 27.4295 25.0306H25.6571V25.0316ZM52.1444 25.5769C51.5749 25.5779 48.8592 25.5478 46.5889 24.3866C46.3628 24.2908 46.1702 24.1301 46.0355 23.9247C45.9008 23.7193 45.8302 23.4786 45.8325 23.2331V22.1919C45.8325 21.3735 46.433 21.5236 46.6877 21.6214C47.6601 22.0146 48.2838 22.3129 49.478 22.5512C53.0277 23.2805 54.589 22.3284 54.9715 22.1173C56.2452 21.3609 56.3459 19.6301 55.48 18.7323C54.465 17.881 53.9807 17.849 50.3342 16.6984C49.8848 16.5734 46.1018 15.3802 46.093 11.6272C46.034 8.89204 48.5192 6.18597 52.8263 6.20824C54.0534 6.20727 57.3231 6.60825 58.2084 7.72109C58.3391 7.92351 58.404 8.16177 58.3943 8.40293V9.38211C58.3943 9.81214 58.2374 10.0272 57.9227 10.0272C57.1759 9.94386 55.851 8.94531 53.1614 8.98598C52.494 8.95112 49.2979 9.07412 49.4412 11.4044C49.3996 13.2407 52.0185 13.9294 52.3178 14.0088C55.849 15.0713 57.0297 15.2475 58.4311 16.8737C60.0912 19.0287 59.1963 21.5517 58.8524 22.2432C57.0045 25.8742 52.2258 25.5788 52.1444 25.5769ZM56.0379 35.7329C49.2553 40.7421 39.4092 43.4085 31.0024 43.4085C19.659 43.4833 8.69794 39.3123 0.273859 31.7154C-0.35859 31.145 0.199283 30.3634 0.968295 30.7982C10.3131 36.1437 20.8934 38.9524 31.659 38.9455C39.6986 38.9024 47.6503 37.2715 55.0577 34.1464C56.1987 33.6622 57.1662 34.9019 56.0379 35.7329ZM58.865 32.5087C57.9972 31.3929 53.1236 31.9876 50.9415 32.2481C50.2839 32.3227 50.1725 31.7522 50.7681 31.3309C54.649 28.6026 61.0229 29.3842 61.7551 30.3014C62.4864 31.2186 61.5566 37.6051 57.9236 40.6559C57.3658 41.1276 56.8321 40.8787 57.08 40.2588C57.8975 38.2007 59.7328 33.6254 58.865 32.5087Z" fill="#20282B"/>
</g>
<defs>
<clipPath id="clip0_1_267">
<rect width="61.9859" height="49.5887" fill="white"/>
</clipPath>
</defs>
</svg>
