<svg width="78" height="62" viewBox="0 0 78 62" fill="none" xmlns="http://www.w3.org/2000/svg">
<g clip-path="url(#clip0_1_274)">
<path d="M38.2805 54.5407C38.0264 54.5407 37.7722 54.4683 37.5423 54.3477L35.2186 52.9721C34.8676 52.779 35.0371 52.7066 35.1581 52.6704C35.618 52.5136 35.7148 52.4774 36.211 52.1878C36.2594 52.1636 36.332 52.1757 36.3804 52.1998L38.1716 53.2617C38.2321 53.2979 38.3289 53.2979 38.3895 53.2617L45.3847 49.2315C45.4452 49.1953 45.4936 49.1229 45.4936 49.0384V40.9901C45.4936 40.9056 45.4573 40.8332 45.3847 40.797L38.3895 36.7788C38.3289 36.7426 38.2442 36.7426 38.1716 36.7788L31.1763 40.797C31.1037 40.8332 31.0674 40.9177 31.0674 40.9901V49.0384C31.0674 49.1108 31.1158 49.1832 31.1763 49.2194L33.0885 50.3175C34.1294 50.8363 34.7708 50.2209 34.7708 49.6176V41.6658C34.7708 41.5572 34.8555 41.4606 34.9765 41.4606H35.86C35.9689 41.4606 36.0658 41.5451 36.0658 41.6658V49.6176C36.0658 51.0053 35.3154 51.7896 33.9962 51.7896C33.5968 51.7896 33.2701 51.7896 32.3866 51.3552L30.547 50.3054C30.0992 50.0399 29.8088 49.5573 29.8088 49.0384V40.9901C29.8088 40.4712 30.0871 39.9765 30.547 39.7231L37.5423 35.6929C37.9901 35.4395 38.571 35.4395 39.0067 35.6929L46.0019 39.7231C46.4497 39.9885 46.7402 40.4712 46.7402 40.9901V49.0384C46.7402 49.5573 46.4618 50.052 46.0019 50.3054L39.0067 54.3356C38.8009 54.4683 38.5468 54.5407 38.2805 54.5407ZM43.9324 46.601C43.9324 45.0927 42.9158 44.6945 40.7615 44.4049C38.5831 44.1153 38.3652 43.9705 38.3652 43.4637C38.3652 43.0414 38.5468 42.4863 40.1564 42.4863C41.5966 42.4863 42.1291 42.8 42.347 43.7654C42.3712 43.8619 42.4438 43.9222 42.5406 43.9222H43.4483C43.5088 43.9222 43.5572 43.8981 43.5935 43.8619C43.6299 43.8136 43.6541 43.7654 43.642 43.705C43.4967 42.0398 42.3954 41.2676 40.1564 41.2676C38.1595 41.2676 36.9735 42.1122 36.9735 43.512C36.9735 45.0444 38.1595 45.4547 40.0717 45.6477C42.3591 45.877 42.5406 46.2028 42.5406 46.6492C42.5406 47.4336 41.9113 47.7594 40.4348 47.7594C38.5831 47.7594 38.1716 47.3008 38.0385 46.3838C38.0264 46.2873 37.9417 46.2149 37.8327 46.2149H36.925C36.8161 46.2149 36.7193 46.2993 36.7193 46.42C36.7193 47.5904 37.3607 48.9902 40.4227 48.9902C42.6616 48.9902 43.9324 48.1214 43.9324 46.601ZM50.5283 40.5557C50.5283 41.2917 49.9232 41.895 49.1849 41.895C48.4467 41.895 47.8415 41.2917 47.8415 40.5557C47.8415 39.7955 48.4709 39.2163 49.1849 39.2163C49.9111 39.2042 50.5283 39.7955 50.5283 40.5557ZM50.3105 40.5557C50.3105 39.9282 49.8021 39.4335 49.1728 39.4335C48.5556 39.4335 48.0473 39.9282 48.0473 40.5557C48.0473 41.1831 48.5556 41.6899 49.1728 41.6899C49.8021 41.6778 50.3105 41.1711 50.3105 40.5557ZM49.7658 41.3038H49.4512C49.4391 41.2314 49.3907 40.8453 49.3907 40.8332C49.3665 40.7487 49.3422 40.7005 49.2333 40.7005H48.9671V41.3038H48.6766V39.7955H49.197C49.3786 39.7955 49.7295 39.7955 49.7295 40.1937C49.7295 40.4712 49.548 40.5315 49.4391 40.5677C49.6448 40.5798 49.6569 40.7125 49.6932 40.9056C49.7053 41.0263 49.7295 41.2314 49.7658 41.3038ZM49.427 40.2419C49.427 40.0368 49.2817 40.0368 49.2091 40.0368H48.9671V40.4591H49.197C49.3907 40.4591 49.427 40.3264 49.427 40.2419ZM16.617 23.0471C16.617 22.7213 16.4476 22.4318 16.1692 22.2749L8.75035 18.0154C8.62932 17.943 8.48409 17.9068 8.33886 17.8947H8.26624C8.12101 17.8947 7.98789 17.943 7.85476 18.0154L0.448007 22.2749C0.169649 22.4318 0.000213623 22.7334 0.000213623 23.0471L0.0123162 34.5103C0.0123162 34.6672 0.0970339 34.812 0.230162 34.8965C0.36329 34.9809 0.532725 34.9809 0.677956 34.8965L5.08328 32.3746C5.36164 32.2056 5.53107 31.916 5.53107 31.6023V26.2448C5.53107 25.931 5.70051 25.6294 5.97887 25.4725L7.85476 24.3986C7.99999 24.3141 8.14522 24.2779 8.30255 24.2779C8.45989 24.2779 8.61722 24.3141 8.75035 24.3986L10.6262 25.4725C10.9046 25.6294 11.074 25.931 11.074 26.2448V31.6023C11.074 31.916 11.2435 32.2177 11.5218 32.3746L15.9271 34.8965C16.0603 34.9809 16.2418 34.9809 16.3749 34.8965C16.5081 34.8241 16.5928 34.6672 16.5928 34.5103L16.617 23.0471ZM57.1847 10.5342V31.8195C57.1847 32.1332 57.0153 32.4349 56.7369 32.5918L49.318 36.8633C49.0397 37.0202 48.7008 37.0202 48.4225 36.8633L41.0036 32.5918C40.7252 32.4349 40.5558 32.1332 40.5558 31.8195V23.2764C40.5558 22.9627 40.7252 22.661 41.0036 22.5041L48.4225 18.2326C48.7008 18.0757 49.0397 18.0757 49.318 18.2326L51.1697 19.2945C51.3755 19.4151 51.6417 19.2583 51.6417 19.029V7.68647C51.6417 7.34861 52.0048 7.13141 52.3074 7.30034L56.7248 9.76191C57.0032 9.90671 57.1847 10.2084 57.1847 10.5342ZM51.6175 26.0879C51.6175 26.0034 51.5691 25.931 51.5086 25.8948L48.9671 24.4227C48.8945 24.3865 48.8097 24.3865 48.7371 24.4227L46.1956 25.8948C46.123 25.931 46.0867 26.0034 46.0867 26.0879V29.0201C46.0867 29.1045 46.1351 29.1769 46.1956 29.2131L48.7371 30.6732C48.8097 30.7094 48.8945 30.7094 48.955 30.6732L51.4965 29.2131C51.5691 29.1769 51.6054 29.1045 51.6054 29.0201V26.0879H51.6175ZM77.0086 26.0034C77.287 25.8466 77.4564 25.5449 77.4564 25.2312V23.1678C77.4564 22.8541 77.287 22.5524 77.0086 22.3956L69.6382 18.124C69.3598 17.9671 69.021 17.9671 68.7426 18.124L61.3238 22.3956C61.0454 22.5524 60.876 22.8541 60.876 23.1678V31.7109C60.876 32.0367 61.0454 32.3263 61.3238 32.4832L68.6942 36.6702C68.9604 36.8271 69.2993 36.8271 69.5777 36.6702L74.0314 34.1966C74.334 34.0277 74.334 33.5933 74.0314 33.4243L66.5642 29.1528C66.4189 29.0683 66.3342 28.9235 66.3342 28.7667V26.0879C66.3342 25.931 66.4189 25.7862 66.5642 25.7018L68.8878 24.3624C69.021 24.2779 69.2025 24.2779 69.3356 24.3624L71.6593 25.7018C71.7924 25.7862 71.8893 25.931 71.8893 26.0879V28.1875C71.8893 28.5253 72.2644 28.7425 72.567 28.5736L77.0086 26.0034ZM67.6534 26.4258C67.605 26.462 67.5687 26.5102 67.5687 26.5706V28.2116C67.5687 28.2719 67.605 28.3323 67.6534 28.3564L69.0815 29.1769C69.1299 29.2131 69.2025 29.2131 69.2509 29.1769L70.679 28.3564C70.7274 28.3202 70.7637 28.2719 70.7637 28.2116V26.5706C70.7637 26.5102 70.7274 26.4499 70.679 26.4258L69.2509 25.6052C69.2025 25.569 69.1299 25.569 69.0815 25.6052L67.6534 26.4258ZM36.8887 31.6747V23.1799C36.8887 22.8661 36.6951 22.5645 36.4167 22.4076L29.0221 18.1602C28.7679 18.0154 28.417 17.9913 28.1265 18.1602L20.7319 22.4076C20.4535 22.5645 20.2599 22.8541 20.2599 23.1799V31.6747C20.2599 32.0126 20.4898 32.3022 20.744 32.447L28.1507 36.6944C28.4412 36.8633 28.78 36.8512 29.0463 36.6944L36.4288 32.447C36.6467 32.3263 36.804 32.1212 36.8645 31.8798C36.8766 31.8195 36.8887 31.7471 36.8887 31.6747ZM27.8966 16.6036L27.7997 16.664H27.9329L27.8966 16.6036ZM37.1187 32.3142L37.0703 32.2298V32.3384L37.1187 32.3142Z" fill="#20282B"/>
</g>
<defs>
<clipPath id="clip0_1_274">
<rect width="77.4562" height="61.7806" fill="white"/>
</clipPath>
</defs>
</svg>
