<svg width="60" height="60" viewBox="0 0 60 60" fill="none" xmlns="http://www.w3.org/2000/svg">
<g clip-path="url(#clip0_2_644)">
<path d="M53.7492 59.9999H36.2492C35.558 59.9999 34.9992 59.4399 34.9992 58.7499V1.24994C34.9992 0.559939 35.558 -6.10352e-05 36.2492 -6.10352e-05H53.7492C54.4405 -6.10352e-05 54.9992 0.559939 54.9992 1.24994V58.7499C54.9992 59.4399 54.4405 59.9999 53.7492 59.9999ZM37.4992 57.4999H52.4992V2.49994H37.4992V57.4999Z" fill="#BC263A"/>
<path d="M42.4993 10H36.2493V12.5H42.4993V10Z" fill="#BC263A"/>
<path d="M42.4993 17.5H36.2493V20H42.4993V17.5Z" fill="#BC263A"/>
<path d="M42.4993 25.0001H36.2493V27.5001H42.4993V25.0001Z" fill="#BC263A"/>
<path d="M42.4993 32.4999H36.2493V34.9999H42.4993V32.4999Z" fill="#BC263A"/>
<path d="M42.4993 39.9999H36.2493V42.4999H42.4993V39.9999Z" fill="#BC263A"/>
<path d="M42.4993 47.5H36.2493V50H42.4993V47.5Z" fill="#BC263A"/>
<path d="M18.7495 57.4999H13.7495C10.3033 57.4999 7.49954 54.6962 7.49954 51.2499V14.9999C7.49954 14.7537 7.57329 14.5112 7.70954 14.3062L15.2095 3.05618C15.6733 2.35993 16.8258 2.35993 17.2895 3.05618L24.7895 14.3062C24.9258 14.5112 24.9995 14.7537 24.9995 14.9999V51.2499C24.9995 54.6962 22.1958 57.4999 18.7495 57.4999ZM9.99954 15.3787V51.2499C9.99954 53.3174 11.682 54.9999 13.7495 54.9999H18.7495C20.817 54.9999 22.4995 53.3174 22.4995 51.2499V15.3787L16.2495 6.00368L9.99954 15.3787Z" fill="#BC263A"/>
<path d="M23.7495 50H8.74954C8.05829 50 7.49954 49.44 7.49954 48.75C7.49954 48.06 8.05829 47.5 8.74954 47.5H23.7495C24.4408 47.5 24.9995 48.06 24.9995 48.75C24.9995 49.44 24.4408 50 23.7495 50Z" fill="#BC263A"/>
<path d="M23.7495 44.9999H8.74954C8.05829 44.9999 7.49954 44.4399 7.49954 43.7499C7.49954 43.0599 8.05829 42.4999 8.74954 42.4999H23.7495C24.4408 42.4999 24.9995 43.0599 24.9995 43.7499C24.9995 44.4399 24.4408 44.9999 23.7495 44.9999Z" fill="#BC263A"/>
<path d="M13.7492 44.9999C13.0579 44.9999 12.4992 44.4399 12.4992 43.7499V19.9999C12.4992 19.3099 13.0579 18.7499 13.7492 18.7499C14.4404 18.7499 14.9992 19.3099 14.9992 19.9999V43.7499C14.9992 44.4399 14.4404 44.9999 13.7492 44.9999Z" fill="#BC263A"/>
<path d="M18.7492 45C18.0579 45 17.4992 44.44 17.4992 43.75V20C17.4992 19.31 18.0579 18.75 18.7492 18.75C19.4404 18.75 19.9992 19.31 19.9992 20V43.75C19.9992 44.44 19.4404 45 18.7492 45Z" fill="#BC263A"/>
<path d="M19.9992 8.75H12.4992V11.25H19.9992V8.75Z" fill="#BC263A"/>
<path d="M12.4995 21.2499C9.74204 21.2499 7.49954 19.0074 7.49954 16.2499C7.49954 15.5599 8.05829 14.9999 8.74954 14.9999C9.44079 14.9999 9.99954 15.5599 9.99954 16.2499C9.99954 17.6287 11.1208 18.7499 12.4995 18.7499C13.8783 18.7499 14.9995 17.6287 14.9995 16.2499C14.9995 15.5599 15.5583 14.9999 16.2495 14.9999C16.9408 14.9999 17.4995 15.5599 17.4995 16.2499C17.4995 19.0074 15.257 21.2499 12.4995 21.2499Z" fill="#BC263A"/>
<path d="M19.9995 21.2499C17.242 21.2499 14.9995 19.0074 14.9995 16.2499C14.9995 15.5599 15.5583 14.9999 16.2495 14.9999C16.9408 14.9999 17.4995 15.5599 17.4995 16.2499C17.4995 17.6287 18.6208 18.7499 19.9995 18.7499C21.3783 18.7499 22.4995 17.6287 22.4995 16.2499C22.4995 15.5599 23.0583 14.9999 23.7495 14.9999C24.4408 14.9999 24.9995 15.5599 24.9995 16.2499C24.9995 19.0074 22.757 21.2499 19.9995 21.2499Z" fill="#BC263A"/>
</g>
<defs>
<clipPath id="clip0_2_644">
<rect width="60" height="60" fill="white"/>
</clipPath>
</defs>
</svg>
