<svg width="60" height="64" viewBox="0 0 60 64" fill="none" xmlns="http://www.w3.org/2000/svg">
<path d="M44.7937 40.9385V63.3398H2V7.02014H22.4747L18.9893 11.339H6.28249V59.0051H40.5268V41.8561L44.7937 40.9385Z" fill="#BC263A" stroke="#380D1A"/>
<path d="M44.7937 40.9385V63.3398H2V7.02014H22.4747L18.9893 11.339H6.28249V59.0051H40.5268V41.8561L44.7937 40.9385Z" fill="#BC263A" stroke="#380D1A"/>
<path d="M34.0843 46.0011H12.6875V50.3358H34.0843V46.0011Z" fill="#BC263A" stroke="#380D1A"/>
<path d="M27.6762 41.6661H12.6875V37.3314H22.8623" fill="#BC263A"/>
<path d="M27.6762 41.6661H12.6875V37.3314H22.8623" stroke="#380D1A"/>
<path d="M18.5798 32.9967H12.6875V28.662H16.7824" fill="#BC263A"/>
<path d="M18.5798 32.9967H12.6875V28.662H16.7824" stroke="#380D1A"/>
<path d="M36.4613 44.3555C24.5516 44.3555 14.877 34.547 14.877 22.5079C14.877 10.4529 24.5673 0.660278 36.4613 0.660278C48.371 0.660278 58.0457 10.4688 58.0457 22.5079C58.0457 34.5628 48.3554 44.3555 36.4613 44.3555ZM36.4613 4.97918C26.9117 4.97918 19.1594 12.8418 19.1594 22.5079C19.1594 32.174 26.9273 40.0208 36.4613 40.0208C46.011 40.0208 53.7789 32.1582 53.7789 22.5079C53.7632 12.8418 45.9954 4.97918 36.4613 4.97918Z" fill="#BC263A" stroke="#380D1A"/>
<path d="M33.2413 32.7595L22.8477 22.2391L25.8798 19.17L33.2413 26.6371L45.9325 13.7911L48.9646 16.8444L33.2413 32.7595Z" fill="#BC263A" stroke="#380D1A"/>
</svg>
