<svg width="60" height="60" viewBox="0 0 60 60" fill="none" xmlns="http://www.w3.org/2000/svg">
<path d="M5 55.9188C5 56.9408 5.82918 57.77 6.85119 57.77H53.6275C54.6495 57.77 55.4787 56.9408 55.4787 55.9188V49.1311C55.4787 48.1091 54.6495 47.2799 53.6275 47.2799C52.6055 47.2799 51.7763 48.1091 51.7763 49.1311V54.0676H8.70238V49.1311C8.70238 48.1091 7.8732 47.2799 6.85119 47.2799C5.82918 47.2799 5 48.1091 5 49.1311V55.9188Z" fill="#BC263A" stroke="#2F0B0E" stroke-width="0.6"/>
<path d="M5 18.2778C5 19.2998 5.82918 20.129 6.85119 20.129C7.8732 20.129 8.70238 19.2998 8.70238 18.2778V4.70238H40.7294V14.5754C40.7294 15.5974 41.5586 16.4266 42.5806 16.4266H51.8366V18.2778C51.8366 19.2998 52.6658 20.129 53.6878 20.129C54.7098 20.129 55.539 19.2998 55.539 18.2778V12.1072C55.539 11.6202 55.3461 11.1526 55.0039 10.8055L45.8479 1.54957C45.4996 1.19765 45.026 1 44.5319 1H6.85119C5.82918 1 5 1.82918 5 2.85119V18.2778ZM51.6935 12.7242H44.4318V5.38227L51.6935 12.7242Z" fill="#BC263A" stroke="#2F0B0E" stroke-width="0.6"/>
<path d="M36.1406 24.029C35.2608 23.518 34.1255 23.8097 33.6073 24.6919L30.4662 30.0586L27.3427 24.7979C26.8208 23.9181 25.6843 23.6337 24.8057 24.1519C23.9259 24.6726 23.6367 25.8079 24.1585 26.6877L28.3287 33.7109L24.1525 40.8464C23.6367 41.7286 23.9331 42.8639 24.8153 43.3798C25.1094 43.5509 25.4312 43.6328 25.7494 43.6328C26.3845 43.6328 27.004 43.305 27.3487 42.7169L30.4897 37.3501L33.6133 42.6108C33.9592 43.1942 34.5751 43.5171 35.2066 43.5171C35.5284 43.5171 35.8538 43.4328 36.1503 43.2568C37.0301 42.7362 37.3193 41.6009 36.7975 40.7211L32.6273 33.6979L36.8035 26.5624C37.3193 25.6801 37.0228 24.5448 36.1406 24.029Z" fill="#BC263A" stroke="#2F0B0E" stroke-width="0.6"/>
<path d="M16.7757 27.5338C17.7977 27.5338 18.6269 26.7046 18.6269 25.6826C18.6269 24.6606 17.7977 23.8314 16.7757 23.8314H7.80053C6.77852 23.8314 5.94934 24.6606 5.94934 25.6826V41.7263C5.94934 42.7483 6.77852 43.5775 7.80053 43.5775H16.7757C17.7977 43.5775 18.6269 42.7483 18.6269 41.7263C18.6269 40.7043 17.7977 39.8751 16.7757 39.8751H9.65172V35.5556H14.2255C15.2475 35.5556 16.0767 34.7265 16.0767 33.7044C16.0767 32.6824 15.2475 31.8533 14.2255 31.8533H9.65172V27.5338H16.7757Z" fill="#BC263A" stroke="#2F0B0E" stroke-width="0.6"/>
<path d="M52.8203 27.5338C53.8423 27.5338 54.6715 26.7046 54.6715 25.6826C54.6715 24.6606 53.8423 23.8314 52.8203 23.8314H43.8451C42.8231 23.8314 41.9939 24.6606 41.9939 25.6826V41.7263C41.9939 42.7483 42.8231 43.5775 43.8451 43.5775H52.8203C53.8423 43.5775 54.6715 42.7483 54.6715 41.7263C54.6715 40.7043 53.8423 39.8751 52.8203 39.8751H45.6963V35.5556H50.2701C51.2921 35.5556 52.1213 34.7265 52.1213 33.7044C52.1213 32.6824 51.2921 31.8533 50.2701 31.8533H45.6963V27.5338H52.8203Z" fill="#BC263A" stroke="#2F0B0E" stroke-width="0.6"/>
</svg>
