<svg width="60" height="60" viewBox="0 0 60 60" fill="none" xmlns="http://www.w3.org/2000/svg">
<path d="M6.1789 5.05451C19.5707 5.01944 32.9626 4.98436 46.3545 4.94929C48.0892 4.94475 50.1145 4.70504 51.8054 5.11197C53.7688 4.73576 54.9454 5.62833 55.335 7.78967C56.7476 9.12935 57.251 10.7209 56.8452 12.5644C57.1506 15.5108 56.8128 18.6747 56.7972 21.6394C56.7792 25.0425 56.7611 28.4456 56.7431 31.8487C56.7166 36.866 58.2583 41.9228 51.2793 43.4809C48.53 44.0947 44.931 43.4952 42.1036 43.5016C38.6627 43.5094 35.2218 43.5172 31.7809 43.5249C25.6239 43.5389 19.4386 43.7283 13.2861 43.4387C11.4894 43.3541 9.23718 43.5323 7.56082 42.8894C5.7917 43.0562 4.76101 42.143 4.46876 40.1501C3.32538 39.1383 2.84822 37.9496 3.03728 36.5837C2.52926 33.5358 3.07038 29.918 3.08567 26.8396C3.10508 22.9291 1.08491 5.58163 6.70757 4.855C8.34148 4.64385 8.36253 2.04497 6.70757 2.25885C-0.21554 3.15354 0.570038 10.623 0.543274 16.0128C0.518185 21.0653 0.493096 26.1178 0.468006 31.1703C0.453179 34.1563 -0.340423 38.7082 0.939082 41.5634C3.64938 47.6115 14.0725 46.1227 19.415 46.147C30.249 46.1961 41.4022 46.7984 52.2038 46.0518C59.355 45.5575 59.2884 41.4556 59.3213 35.2518C59.3493 29.9581 59.3773 24.6644 59.4053 19.3706C59.4252 15.6082 60.5542 9.7186 58.8329 6.23435C55.8789 0.254751 45.9377 2.35423 40.6151 2.36817C29.1364 2.39823 17.6576 2.42829 6.1789 2.45835C4.50859 2.46273 4.50545 5.05889 6.1789 5.05451Z" fill="#BC263A"/>
<path d="M2.04373 37.7937C20.4732 37.8385 38.9026 37.8834 57.3321 37.9282C59.0028 37.9323 59.0052 35.3361 57.3321 35.3321C38.9026 35.2872 20.4732 35.2424 2.04373 35.1975C0.373065 35.1934 0.370649 37.7896 2.04373 37.7937Z" fill="#BC263A"/>
<path d="M36.0405 18.0989C37.0546 18.4985 37.8053 19.2718 38.6771 19.8953C39.5436 20.515 40.4814 21.0104 41.4235 21.5034C41.4235 20.7561 41.4235 20.0089 41.4235 19.2617C39.2936 20.6269 37.1637 21.9921 35.0337 23.3573C33.6315 24.2561 34.9319 26.5041 36.3441 25.599C38.474 24.2338 40.6039 22.8686 42.7338 21.5034C43.5148 21.0028 43.6354 19.7334 42.7338 19.2617C40.6555 18.1743 38.9011 16.4507 36.7306 15.5955C35.1758 14.9828 34.5013 17.4924 36.0405 18.0989Z" fill="#BC263A"/>
<path d="M33.941 12.0828C32.247 14.6498 31.5754 17.4171 30.291 20.1606C28.9139 23.102 26.8674 25.5769 24.3966 27.6648C23.1188 28.7447 24.9631 30.5732 26.2324 29.5006C28.6075 27.4934 30.6317 25.1216 32.0879 22.3617C33.6433 19.4141 34.3257 16.2071 36.1827 13.3932C37.1056 11.9947 34.8583 10.6928 33.941 12.0828Z" fill="#BC263A"/>
<path d="M22.7749 15.3522C21.5091 16.206 20.2258 17.0399 18.9944 17.9434C18.1042 18.5966 16.6383 19.3903 16.8383 20.7027C17.0124 21.8454 18.2367 22.1361 19.1668 22.3974C19.9528 22.6183 20.3164 22.9769 20.8838 23.5371C21.35 23.9975 22.0631 24.2339 22.4282 24.7767C23.3557 26.156 25.6057 24.858 24.6699 23.4664C24.024 22.506 23.0261 21.8899 22.1908 21.1125C21.7761 20.7266 21.2915 20.423 20.7749 20.1973C20.3162 19.9968 19.3938 19.9731 19.031 19.6123C19.1423 20.0333 19.2536 20.4543 19.3649 20.8752C19.2428 21.0285 19.291 21.0018 19.5094 20.7951C19.7674 20.5827 20.0325 20.3793 20.3047 20.1851C20.7352 19.869 21.1747 19.565 21.6149 19.2629C22.4342 18.7005 23.2615 18.1495 24.0853 17.5939C25.463 16.6645 24.1652 14.4144 22.7749 15.3522Z" fill="#BC263A"/>
<path d="M28.2931 42.0389C28.5495 42.0389 28.8059 42.0389 29.0624 42.0389C30.7329 42.0389 30.7356 39.4427 29.0624 39.4427C28.8059 39.4427 28.5495 39.4427 28.2931 39.4427C26.6226 39.4427 26.6199 42.0389 28.2931 42.0389Z" fill="#BC263A"/>
<path d="M21.057 57.0154C22.9852 54.811 27.125 55.5876 29.7302 55.5669C32.991 55.541 36.3961 55.2346 38.9703 57.6404C40.1901 58.7803 42.0299 56.9484 40.8061 55.8046C37.6601 52.8645 33.8139 52.9379 29.7302 52.9708C26.2617 52.9987 21.7685 52.2675 19.2213 55.1796C18.1255 56.4324 19.9545 58.2758 21.057 57.0154Z" fill="#BC263A"/>
<path d="M35.0726 45.8369C35.0726 48.4972 35.0726 51.1574 35.0726 53.8177C35.0726 55.4882 37.6687 55.491 37.6687 53.8177C37.6687 51.1574 37.6687 48.4972 37.6687 45.8369C37.6687 44.1664 35.0726 44.1637 35.0726 45.8369Z" fill="#BC263A"/>
<path d="M23.1832 45.4502C23.3513 48.2081 23.5194 50.966 23.6875 53.7239C23.7887 55.3838 26.3855 55.3953 26.2836 53.7239C26.1155 50.966 25.9475 48.2081 25.7794 45.4502C25.6782 43.7903 23.0813 43.7787 23.1832 45.4502Z" fill="#BC263A"/>
</svg>
