<svg width="60" height="60" viewBox="0 0 60 60" fill="none" xmlns="http://www.w3.org/2000/svg">
<g clip-path="url(#clip0_1_462)">
<path d="M28.6797 8.77441V10.7744H37.6797C34.945 9.63365 31.8636 8.94889 28.6797 8.77441Z" fill="#BC263A" stroke="#280919" stroke-width="0.6"/>
<path d="M44.9545 20.28L50.2611 14.9143H58.1274C58.5391 14.9143 58.9339 14.7489 59.225 14.4545C59.5161 14.1601 59.6797 13.7607 59.6797 13.3444C59.6797 12.928 59.5161 12.5287 59.225 12.2342C58.9339 11.9398 58.5391 11.7744 58.1274 11.7744H49.6127C49.201 11.7745 48.8062 11.9399 48.515 12.2341L42.1552 18.6663H28.6797V21.7744H45.5492C45.3724 21.2657 45.1707 20.7688 44.9545 20.28Z" fill="#BC263A" stroke="#280919" stroke-width="0.6"/>
<path d="M39.8797 12.7744H28.6797V15.7744H42.6797C41.8568 14.6793 40.9182 13.6737 39.8797 12.7744Z" fill="#BC263A" stroke="#280919" stroke-width="0.6"/>
<path d="M26.2839 27.62V8.77441C16.7465 9.54223 9.21467 17.7005 9.21467 27.62C9.21597 30.2956 9.77618 32.9402 10.858 35.3779C11.9398 37.8155 13.5185 39.9903 15.4889 41.7574L8.61446 48.7716H1.15225C0.7617 48.7716 0.387149 48.9298 0.11099 49.2113C-0.165168 49.4929 -0.320312 49.8748 -0.320312 50.273C-0.320312 50.6712 -0.165168 51.0531 0.11099 51.3347C0.387149 51.6162 0.7617 51.7744 1.15225 51.7744H9.22958C9.62012 51.7743 9.99466 51.6162 10.2709 51.3348L17.8661 43.5768C21.8232 46.1442 26.5905 47.0793 31.1994 46.1921C35.8083 45.3049 39.9131 42.6619 42.6797 38.8002L26.9823 28.8959C26.769 28.7615 26.5929 28.5737 26.4706 28.3504C26.3484 28.1271 26.2842 27.8757 26.2839 27.62Z" fill="#BC263A" stroke="#280919" stroke-width="0.6"/>
<path d="M37.2085 30.7744H46.3451C46.5319 29.7857 46.6438 28.7824 46.6797 27.7744H32.6797L37.2085 30.7744Z" fill="#BC263A" stroke="#280919" stroke-width="0.6"/>
<path d="M46.2286 23.7744H28.6797V25.7744H46.6797C46.6119 25.101 46.461 24.4322 46.2286 23.7744Z" fill="#BC263A" stroke="#280919" stroke-width="0.6"/>
<path d="M44.4815 35.7744C44.9631 34.8099 45.3639 33.8064 45.6797 32.7744H39.6797L44.4815 35.7744Z" fill="#BC263A" stroke="#280919" stroke-width="0.6"/>
<path d="M58.0791 15.7744H50.2803C49.8558 15.7744 49.4486 15.9325 49.1485 16.2138C48.8483 16.4951 48.6797 16.8766 48.6797 17.2744C48.6797 17.6722 48.8483 18.0538 49.1485 18.3351C49.4486 18.6164 49.8558 18.7744 50.2803 18.7744H58.0791C58.5036 18.7744 58.9107 18.6164 59.2109 18.3351C59.5111 18.0538 59.6797 17.6722 59.6797 17.2744C59.6797 16.8766 59.5111 16.4951 59.2109 16.2138C58.9107 15.9325 58.5036 15.7744 58.0791 15.7744Z" fill="#BC263A" stroke="#280919" stroke-width="0.6"/>
<path d="M0.98924 46.7744H7.37013C7.71745 46.7744 8.05054 46.6164 8.29613 46.3351C8.54172 46.0538 8.67969 45.6722 8.67969 45.2744C8.67969 44.8766 8.54172 44.4951 8.29613 44.2138C8.05054 43.9325 7.71745 43.7744 7.37013 43.7744H0.98924C0.641925 43.7744 0.308835 43.9325 0.0632465 44.2138C-0.182342 44.4951 -0.320312 44.8766 -0.320312 45.2744C-0.320312 45.6722 -0.182342 46.0538 0.0632465 46.3351C0.308835 46.6164 0.641925 46.7744 0.98924 46.7744Z" fill="#BC263A" stroke="#280919" stroke-width="0.6"/>
</g>
<defs>
<clipPath id="clip0_1_462">
<rect width="60" height="60" fill="white"/>
</clipPath>
</defs>
</svg>
