<svg width="61" height="60" viewBox="0 0 61 60" fill="none" xmlns="http://www.w3.org/2000/svg">
<path d="M50.8274 4.0276C51.7614 5.42541 52.2599 7.0688 52.2599 8.74994C52.2599 11.0043 51.3644 13.1663 49.7703 14.7603C48.1763 16.3544 46.0143 17.2499 43.7599 17.2499C42.0788 17.2499 40.4354 16.7514 39.0376 15.8174C37.6398 14.8834 36.5503 13.5559 35.9069 12.0028C35.2636 10.4496 35.0953 8.74051 35.4232 7.09168C35.7512 5.44284 36.5608 3.92828 37.7495 2.73954C38.9383 1.55079 40.4528 0.741242 42.1017 0.413268C43.7505 0.0852936 45.4596 0.253622 47.0127 0.896967C48.5659 1.54031 49.8934 2.62978 50.8274 4.0276ZM40.9315 11.5784C41.6816 12.3285 42.6991 12.7499 43.7599 12.7499C44.8208 12.7499 45.8382 12.3285 46.5883 11.5784C47.3385 10.8282 47.7599 9.81081 47.7599 8.74994C47.7599 7.68908 47.3385 6.67166 46.5883 5.92152C45.8382 5.17137 44.8208 4.74994 43.7599 4.74994C42.6991 4.74994 41.6816 5.17137 40.9315 5.92152C40.1814 6.67166 39.7599 7.68908 39.7599 8.74994C39.7599 9.81081 40.1814 10.8282 40.9315 11.5784Z" fill="#BC263A" stroke="#210718" stroke-width="0.5"/>
<path d="M7.33277 19.1509L7.51023 19.3297L7.68769 19.1509L10.912 15.9016C10.9121 15.9015 10.9122 15.9014 10.9123 15.9013C11.3361 15.4776 11.9109 15.2396 12.5102 15.2396C13.1097 15.2396 13.6846 15.4777 14.1085 15.9016C14.5323 16.3254 14.7705 16.9003 14.7705 17.4998C14.7705 18.0991 14.5324 18.6739 14.1088 19.0977C14.1087 19.0978 14.1086 19.0979 14.1085 19.098L10.8591 22.3223L10.6803 22.4998L10.8591 22.6772L14.1085 25.9016C14.1086 25.9017 14.1087 25.9018 14.1088 25.9019C14.5324 26.3257 14.7705 26.9005 14.7705 27.4998C14.7705 28.0992 14.5323 28.6741 14.1085 29.098C13.6846 29.5219 13.1097 29.76 12.5102 29.76C11.9109 29.76 11.3362 29.522 10.9123 29.0983C10.9122 29.0982 10.9121 29.0981 10.912 29.098L7.68769 25.8487L7.51023 25.6699L7.33277 25.8487L4.10845 29.098C4.10835 29.0981 4.10825 29.0982 4.10815 29.0983C3.6843 29.522 3.10954 29.76 2.51023 29.76C1.91078 29.76 1.33588 29.5219 0.912006 29.098C0.488131 28.6741 0.25 28.0992 0.25 27.4998C0.25 26.9005 0.488019 26.3257 0.911709 25.9019C0.911808 25.9018 0.911907 25.9017 0.912006 25.9016L4.16132 22.6772L4.34016 22.4998L4.16132 22.3223L0.912006 19.098C0.911907 19.0979 0.911808 19.0978 0.911709 19.0977C0.488019 18.6739 0.25 18.0991 0.25 17.4998C0.25 16.9003 0.488131 16.3254 0.912006 15.9016C1.33588 15.4777 1.91078 15.2396 2.51023 15.2396C3.10954 15.2396 3.68431 15.4776 4.10815 15.9013C4.10825 15.9014 4.10835 15.9015 4.10845 15.9016L7.33277 19.1509Z" fill="#BC263A" stroke="#210718" stroke-width="0.5"/>
<path d="M55.8597 44.8223L55.6809 44.9998L55.8597 45.1772L59.109 48.4016C59.1091 48.4017 59.1092 48.4018 59.1093 48.4019C59.533 48.8257 59.771 49.4005 59.771 49.9998C59.771 50.5992 59.5329 51.1741 59.109 51.598C58.6852 52.0219 58.1103 52.26 57.5108 52.26C56.9115 52.26 56.3367 52.022 55.9129 51.5983C55.9128 51.5982 55.9127 51.5981 55.9126 51.598L52.6883 48.3487L52.5108 48.1699L52.3333 48.3487L49.109 51.598C49.1089 51.5981 49.1088 51.5983 49.1087 51.5984C48.6848 52.022 48.1101 52.26 47.5108 52.26C46.9114 52.26 46.3365 52.0219 45.9126 51.598C45.4887 51.1741 45.2506 50.5992 45.2506 49.9998C45.2506 49.4005 45.4886 48.8257 45.9123 48.4019C45.9124 48.4018 45.9125 48.4017 45.9126 48.4016L49.1619 45.1772L49.3407 44.9998L49.1619 44.8223L45.9126 41.598C45.9125 41.5979 45.9124 41.5978 45.9123 41.5977C45.4886 41.1739 45.2506 40.5991 45.2506 39.9998C45.2506 39.4003 45.4887 38.8254 45.9126 38.4016C46.3365 37.9777 46.9114 37.7396 47.5108 37.7396C48.1101 37.7396 48.6849 37.9776 49.1087 38.4013C49.1088 38.4014 49.1089 38.4015 49.109 38.4016L52.3333 41.6509L52.5108 41.8297L52.6883 41.6509L55.9126 38.4016C55.9127 38.4015 55.9128 38.4014 55.9129 38.4013C56.3367 37.9776 56.9115 37.7396 57.5108 37.7396C58.1103 37.7396 58.6852 37.9777 59.109 38.4016C59.5329 38.8254 59.771 39.4003 59.771 39.9998C59.771 40.5991 59.533 41.1738 59.1094 41.5976C59.1093 41.5978 59.1091 41.5979 59.109 41.598L55.8597 44.8223Z" fill="#BC263A" stroke="#210718" stroke-width="0.5"/>
<path d="M29.5887 22.25L29.1619 22.6768L21.012 30.8267L29.5887 22.25ZM29.5887 22.25H28.9851M29.5887 22.25H28.9851M28.9851 22.25H27.5101C26.9134 22.25 26.3411 22.013 25.9191 21.591C25.4972 21.1691 25.2601 20.5968 25.2601 20C25.2601 19.4033 25.4972 18.831 25.9191 18.4091C26.3411 17.9871 26.9134 17.75 27.5101 17.75C28.8432 17.75 29.994 17.7302 30.9918 17.713C32.1464 17.6931 33.096 17.6768 33.8856 17.6988C35.3671 17.74 36.1608 17.9194 36.6183 18.3742C37.0755 18.8288 37.2592 19.6207 37.3044 21.1041C37.329 21.9122 37.3133 22.8897 37.2941 24.0841C37.2783 25.067 37.2601 26.1968 37.2601 27.5C37.2601 28.0968 37.0231 28.6691 36.6011 29.091C36.1792 29.513 35.6069 29.75 35.0101 29.75C34.4134 29.75 33.8411 29.513 33.4191 29.091C32.9972 28.6691 32.7601 28.0968 32.7601 27.5V26.025V25.4215L32.3334 25.8483C30.8264 27.3552 29.5103 28.6393 28.3641 29.7577C26.1092 31.9577 24.512 33.5161 23.4131 34.8673C22.5777 35.8945 22.0168 36.8167 21.6673 37.826C21.3179 38.8348 21.1851 39.9149 21.1851 41.25C21.1851 43.9565 22.0254 45.8608 23.7542 47.971C24.9114 49.3834 26.4802 50.9029 28.4681 52.8284C29.4188 53.7492 30.4654 54.7629 31.6087 55.9021L31.6091 55.9025C31.9264 56.2173 32.1428 56.6193 32.2307 57.0575C32.3186 57.4957 32.274 57.9501 32.1027 58.3629C31.9313 58.7756 31.6409 59.128 31.2685 59.375C30.896 59.6221 30.4585 59.7526 30.0116 59.75H30.0101C29.6787 59.75 29.4676 59.7315 29.2053 59.6052C28.9282 59.4719 28.5812 59.2117 28.011 58.6851C27.3045 58.0327 26.2893 57.0043 24.6844 55.3787C23.7025 54.3841 22.4999 53.166 21.0122 51.6735L21.012 51.6734M28.9851 22.25L21.012 51.6734M21.012 51.6734C18.2498 48.9077 16.6983 45.1588 16.6983 41.25C16.6983 37.3413 18.2498 33.5924 21.0119 30.8268L21.012 51.6734Z" fill="#BC263A" stroke="#210718" stroke-width="0.5"/>
</svg>
