<svg width="60" height="42" viewBox="0 0 60 42" fill="none" xmlns="http://www.w3.org/2000/svg">
<path d="M10.95 35.3132H31.1V41.1974H0.4V35.3132H6.45H6.85V34.9132V4.85871C6.85 3.74146 7.24691 2.79432 8.05333 1.99575C8.85987 1.19707 9.81817 0.802527 10.95 0.802527H59.05V4.45871H10.95H10.55V4.85871V34.9132V35.3132H10.95ZM34.1224 10.4319L34.1224 10.4319C34.6041 9.95492 35.1958 9.71489 35.925 9.71489H56.3063C57.192 9.71489 57.9678 9.95258 58.6471 10.4235C59.2924 10.8708 59.6 11.455 59.6 12.2114V38.3499C59.6 39.1483 59.2923 39.8104 58.6519 40.3602L58.9125 40.6637L58.6519 40.3602C58.0031 40.9174 57.2342 41.1974 56.325 41.1974H35.925C35.2215 41.1974 34.6366 40.921 34.1475 40.3378L33.841 40.5948L34.1474 40.3377C33.6448 39.7385 33.4 39.0736 33.4 38.3296V12.2114C33.4 11.4927 33.641 10.9086 34.1224 10.4319ZM37.1 34.9132V35.3132H37.5H55.5H55.9V34.9132V13.7711V13.3711H55.5H37.5H37.1V13.7711V34.9132Z" fill="#BC263A" stroke="#200718" stroke-width="0.8"/>
</svg>
