<svg width="78" height="83" viewBox="0 0 78 83" fill="none" xmlns="http://www.w3.org/2000/svg">
<path d="M18.3871 72.3038C20.0979 63.9892 24.9135 58.3832 33.024 55.4857C29.4756 52.7771 27.7015 49.2498 28.145 44.8405C28.4618 41.88 29.8558 39.3604 32.2002 37.4708C37.0792 33.5024 43.859 34.0693 48.0409 38.7305C51.9694 43.1398 52.0962 50.8875 45.95 55.4857C53.9337 58.3832 58.8126 63.9262 60.5234 72.3668C61.4739 71.422 62.4243 70.6031 63.248 69.7213C68.1903 64.4302 71.0416 58.2572 71.8654 51.0764C72.1822 48.2419 72.1188 45.4074 71.6753 42.5729C71.4852 41.3761 71.8654 40.6202 72.8158 40.4942C73.7663 40.3683 74.3365 40.9352 74.5266 42.195C75.5404 49.3757 74.6533 56.3045 71.4218 62.8554C66.1627 73.5006 57.5454 79.8625 45.8866 82.2561C44.6194 82.5081 43.7956 82.0671 43.7323 81.1223C43.6055 80.2404 44.1124 79.6735 45.1896 79.4846C48.9914 78.7917 52.5397 77.5949 55.8346 75.6422C58.2424 74.1935 58.0523 74.9494 57.4186 71.9889C55.7712 64.3672 49.9418 58.8871 42.2116 57.6903C32.3903 56.1156 22.8859 62.9814 21.3652 72.7447C21.0484 74.8864 20.985 74.3825 22.6325 75.3903C26.054 77.4689 29.7291 78.7917 33.6576 79.5476C34.8615 79.7995 35.3684 80.3664 35.1783 81.2483C35.0516 82.1301 34.2912 82.5081 33.0873 82.3191C27.2579 81.2483 21.9988 78.9807 17.3733 75.2643C9.83316 69.2803 5.46113 61.4067 4.19387 51.8953C3.75033 48.5569 3.81369 45.1555 4.44732 41.817C4.57405 40.9982 5.01759 40.5572 5.90467 40.5572C6.72838 40.5572 7.10856 41.0612 7.29865 41.817C7.36201 42.006 7.29865 42.2579 7.23529 42.5099C5.65122 54.2259 9.19954 64.1152 18.007 72.0519C18.0703 72.0519 18.1971 72.1778 18.3871 72.3038ZM39.4236 37.6597C34.7981 37.6597 30.8696 41.5021 30.8696 46.1003C30.8696 50.6985 34.6714 54.5408 39.2969 54.5408C43.9224 54.6038 47.8509 50.7615 47.8509 46.1003C47.9142 41.5651 44.0491 37.6597 39.4236 37.6597Z" fill="#BC263A" stroke="white" stroke-width="0.3"/>
<path d="M39.7408 1C39.9943 1.25196 40.5646 1.5669 40.818 2.07082C42.0853 4.46441 43.2258 6.858 44.3663 9.25159C44.6198 9.7555 44.8732 9.94447 45.5069 10.0075C48.1681 10.3854 50.8927 10.7633 53.5539 11.2043C54.0608 11.2672 54.6311 11.7082 54.8846 12.1491C55.2647 12.716 54.9479 13.3459 54.441 13.7868C52.4768 15.6765 50.5759 17.5662 48.6116 19.4558C48.2315 19.8338 48.1047 20.2117 48.1681 20.7786C48.675 23.4242 49.0552 26.0697 49.5621 28.7782C49.6888 29.4711 49.6254 30.101 48.9918 30.353C48.4849 30.5419 47.7246 30.5419 47.281 30.29C44.8732 29.0932 42.5288 27.8334 40.121 26.5736C39.6141 26.3217 39.2339 26.3217 38.727 26.5736C36.3826 27.8334 34.0382 29.0302 31.6938 30.29C31.0601 30.6049 30.4899 30.7939 29.8562 30.416C29.1592 29.975 29.1592 29.3452 29.286 28.5893C29.7295 26.0067 30.1731 23.3612 30.6166 20.7786C30.7433 20.2117 30.6166 19.8338 30.2364 19.4558C28.3355 17.6292 26.4346 15.7395 24.5338 13.9128C24.0269 13.4089 23.6467 12.842 23.9001 12.1491C24.1536 11.4562 24.7238 11.2672 25.4208 11.1413C28.0821 10.7633 30.8067 10.3854 33.4679 9.94447C33.7847 9.88148 34.2283 9.56653 34.355 9.31458C35.6223 6.92099 36.8261 4.5274 37.9667 2.07082C38.2835 1.44092 38.727 1.06299 39.7408 1ZM50.1323 13.5978C50.069 13.5978 49.8155 13.5349 49.5621 13.4719C47.7246 13.2199 45.8237 12.905 43.9861 12.653C43.1624 12.527 42.7189 12.1491 42.4021 11.4562C41.5784 9.7555 40.7546 8.11778 39.9309 6.41707C39.8042 6.22811 39.6775 5.97615 39.4874 5.6612C38.4736 7.67686 37.5231 9.62953 36.5727 11.5192C36.2559 12.1491 35.8123 12.527 35.1154 12.653C34.0382 12.779 32.961 12.968 31.8838 13.0939C30.8067 13.2829 29.7295 13.4089 28.8424 13.5349C30.1731 14.9836 31.5037 16.4324 32.8977 17.8181C33.7214 18.574 34.1015 19.3299 33.7847 20.4637C33.5946 21.1566 33.5313 21.8494 33.4046 22.5423C33.2145 23.8021 32.961 25.1249 32.7709 26.5106C34.7985 25.4398 36.6361 24.495 38.4736 23.4872C39.2339 23.0462 39.9309 23.0462 40.6913 23.4872C41.7684 24.117 42.909 24.684 44.0495 25.2509C44.8099 25.6288 45.5069 26.0067 46.3939 26.4476C46.0138 24.243 45.7603 22.2904 45.3168 20.2747C45.1267 19.2669 45.3801 18.574 46.0771 17.8181C47.4077 16.5583 48.7384 15.0466 50.1323 13.5978Z" fill="#BC263A" stroke="white" stroke-width="0.3"/>
<path d="M13.825 11.9601C14.3953 12.527 14.9655 12.842 15.219 13.2829C16.1694 15.1096 17.0565 16.9363 17.9436 18.763C18.1337 19.2039 18.3871 19.3929 18.894 19.4559C20.9216 19.7078 23.0126 19.9598 25.0402 20.3377C25.5471 20.4637 26.1808 20.9046 26.4342 21.3455C26.8144 21.9124 26.4342 22.5423 25.9273 22.9833C24.47 24.369 23.076 25.8178 21.6186 27.1405C21.1117 27.5815 20.985 28.0224 21.1117 28.6523C21.4919 30.605 21.8721 32.6206 22.1255 34.6363C22.1889 35.0772 21.9355 35.7071 21.6186 36.085C21.2385 36.5889 20.5415 36.5259 19.9712 36.211C18.0703 35.2032 16.2328 34.2583 14.3319 33.2505C13.8884 32.9985 13.5716 32.9985 13.128 33.2505C11.2905 34.1953 9.45297 35.1402 7.67881 36.148C7.10855 36.463 6.53828 36.5889 5.96802 36.211C5.39775 35.7701 5.27103 35.2032 5.39775 34.5103C5.77793 32.4946 6.15811 30.479 6.41156 28.4633C6.47492 28.1484 6.28483 27.6445 6.09474 27.3925C4.6374 25.9438 3.18005 24.495 1.65935 23.0462C1.15244 22.5423 0.835629 22.0384 1.08908 21.3455C1.34253 20.6527 1.9128 20.4007 2.60979 20.3377C4.57404 20.0858 6.60165 19.7078 8.56589 19.5189C9.19952 19.4559 9.45297 19.1409 9.70643 18.637C10.5935 16.8103 11.4172 15.0466 12.3677 13.2829C12.7478 12.842 13.2547 12.527 13.825 11.9601ZM5.77793 22.8573C6.8551 23.9281 7.80554 24.9989 8.81935 26.0067C9.45297 26.6366 9.64306 27.2665 9.45297 28.1484C9.19952 29.5341 8.94607 30.9199 8.69262 32.4946C10.0866 31.7388 11.3539 31.1719 12.4944 30.479C13.3815 29.9751 14.1418 29.9751 15.0289 30.479C16.2328 31.1719 17.4367 31.7388 18.8307 32.4946C18.6406 31.2348 18.5139 30.164 18.2604 29.1562C17.8169 27.5815 18.0703 26.3847 19.4009 25.3769C20.288 24.684 21.0484 23.7391 21.9355 22.8573C20.4147 22.6053 18.9574 22.4164 17.5001 22.2274C16.613 22.1014 16.0427 21.6605 15.7259 20.9046C15.1556 19.6448 14.4586 18.385 13.7616 16.9363C13.0013 18.448 12.3043 19.7708 11.6707 21.0936C11.3539 21.7235 10.9103 22.1014 10.2133 22.1644C8.81935 22.4164 7.29864 22.6053 5.77793 22.8573Z" fill="#BC263A" stroke="white" stroke-width="0.3"/>
<path d="M58.0526 36.5889C56.9755 36.5889 56.3418 35.77 56.5319 34.8252C56.9121 32.7465 57.2923 30.6679 57.6091 28.5892C57.6724 28.2113 57.4824 27.7074 57.2289 27.4554C55.8349 26.0067 54.3142 24.6209 52.8569 23.1722C52.35 22.6682 52.0332 22.1643 52.2232 21.4715C52.4767 20.7156 53.1103 20.5266 53.8073 20.4006C55.8983 20.1487 57.9259 19.8337 60.0169 19.5188C60.2703 19.4558 60.5871 19.1408 60.7139 18.8889C61.6643 17.0622 62.5514 15.2355 63.4385 13.4088C63.7553 12.7789 64.1355 12.401 64.8324 12.401C65.5294 12.401 66.0363 12.7789 66.3532 13.4088C67.2402 15.2355 68.1273 17.1252 69.0778 18.8889C69.2045 19.2038 69.648 19.4558 69.9648 19.5188C72.0558 19.8337 74.0834 20.0857 76.1744 20.4636C76.6813 20.5896 77.3783 21.0305 77.505 21.4715C77.6317 21.8494 77.3783 22.6682 76.9981 22.9832C75.5408 24.4949 74.0201 25.8807 72.5627 27.3924C72.3093 27.6444 72.1192 28.1483 72.1825 28.5262C72.4993 30.6049 72.9429 32.6205 73.1963 34.6992C73.2597 35.2031 73.0062 35.833 72.6894 36.2109C72.2459 36.7148 71.6123 36.5889 71.042 36.2739C69.2045 35.3291 67.3036 34.3213 65.4661 33.3764C64.9592 33.1245 64.6424 33.1245 64.1988 33.3764C62.4247 34.3213 60.5871 35.2661 58.813 36.2109C58.5595 36.3999 58.2427 36.5259 58.0526 36.5889ZM73.0696 22.8572C71.8024 22.6682 70.5985 22.4163 69.3946 22.3533C68.0006 22.2903 67.1769 21.7234 66.67 20.4006C66.2264 19.2668 65.5928 18.196 64.9592 16.9362C64.1988 18.448 63.5652 19.7078 62.9316 21.0305C62.6147 21.7234 62.1712 22.1013 61.4108 22.1643C59.8901 22.3533 58.4328 22.6053 56.9121 22.8572C57.9259 23.928 58.8763 24.9359 59.8901 25.8807C60.5871 26.5736 60.8406 27.2665 60.6505 28.2113C60.3337 29.5341 60.207 30.9198 59.9535 32.4946C61.2841 31.8017 62.4247 31.2978 63.5018 30.6049C64.579 29.912 65.5294 29.912 66.6066 30.6049C67.6838 31.2978 68.8243 31.8017 70.1549 32.4946C69.9015 30.9198 69.7114 29.5341 69.3946 28.1483C69.2045 27.2665 69.3946 26.6366 70.0282 26.0067C70.9786 25.0618 71.9924 23.991 73.0696 22.8572Z" fill="#BC263A" stroke="white" stroke-width="0.3"/>
<path d="M40.8176 81.3742C40.8176 82.1301 40.184 82.76 39.4236 82.76C38.5999 82.76 37.9663 82.1301 38.0296 81.3112C38.0296 80.5554 38.6633 79.9255 39.487 79.9885C40.2473 79.9885 40.8176 80.6184 40.8176 81.3742Z" fill="#BC263A" stroke="white" stroke-width="0.3"/>
</svg>
