<svg width="97" height="74" viewBox="0 0 97 74" fill="none" xmlns="http://www.w3.org/2000/svg">
<path d="M58.0611 68.8363C58.0611 67.5888 58.0611 66.4661 58.0611 65.4058C58.0611 64.096 58.8768 63.3475 60.0061 63.3475C61.1355 63.3475 61.8256 64.1583 61.8256 65.3434C61.8256 66.4661 61.8256 67.5264 61.8256 68.8363C69.292 68.3373 75.7545 65.6553 81.464 60.7902C80.5229 59.917 79.7072 59.1685 78.8916 58.3577C78.0132 57.4221 78.0132 56.2994 78.8288 55.5509C79.5818 54.8025 80.7111 54.8024 81.5895 55.6757C82.4052 56.4865 83.2208 57.2974 84.0992 58.2329C88.9931 52.6194 91.691 46.2574 92.193 38.7727C91.0009 38.7727 89.9343 38.7727 88.8049 38.7727C87.4246 38.7727 86.6089 38.0866 86.6089 36.9016C86.6089 35.7165 87.4246 35.0304 88.8676 35.0304C89.9343 35.0304 91.0009 35.0304 92.193 35.0304C91.691 27.6081 89.0559 21.1837 84.0992 15.5078C83.2208 16.4434 82.4679 17.2542 81.715 18.0651C80.7738 18.9383 79.6445 19.0006 78.8916 18.1898C78.0759 17.379 78.1387 16.2563 79.0171 15.383C79.8327 14.5722 80.7111 13.8237 81.5895 13.0129C75.8799 8.08546 69.4175 5.46582 61.9511 4.96684C61.9511 6.15192 61.9511 7.21225 61.9511 8.27258C61.9511 9.70715 61.2609 10.518 60.0688 10.518C58.8767 10.518 58.1866 9.70715 58.1238 8.33495C58.1238 7.27462 58.1238 6.21429 58.1238 5.02921C55.3632 5.02921 52.7907 5.59057 50.281 6.40141C48.7125 6.90039 47.2694 7.52411 45.7636 8.21021C44.195 8.89631 43.1911 8.70919 42.6265 7.58648C42.0618 6.46378 42.5637 5.52819 44.1323 4.77972C57.0572 -1.83176 73.2448 0.413649 84.0365 10.0814C91.0636 16.381 94.9536 24.2399 95.832 33.5958C96.8359 44.6981 93.3851 54.3035 85.5423 62.2248C79.519 68.3373 72.0527 71.7054 63.4569 72.5786C56.5553 73.2647 50.0928 72.0796 43.8813 69.0857C42.4382 68.3997 41.9363 67.4017 42.501 66.3414C43.0656 65.2187 44.0695 65.0315 45.5754 65.7176C49.2772 67.4641 53.1672 68.6491 57.3082 68.8986C57.4964 68.8363 57.6846 68.8363 58.0611 68.8363Z" fill="#BC263A" stroke="white"/>
<path d="M53.3557 40.831C52.3519 39.0222 52.1009 37.2134 52.4773 35.3422C53.3557 30.8514 58.1242 28.3565 62.7044 29.9782C63.52 30.2901 64.022 30.2277 64.6494 29.5416C67.41 26.7348 70.2334 23.9281 73.0569 21.1837C74.1862 20.1233 75.3156 19.9986 76.1312 20.8718C76.9469 21.6826 76.8214 22.8054 75.7548 23.8657C72.6804 26.9219 69.6688 29.9158 66.5944 32.9721C67.5355 34.7185 67.7865 36.5273 67.41 38.3985C66.5316 42.8893 61.826 45.3842 57.3085 43.8249C56.3046 43.4506 55.6772 43.5754 55.1125 44.3862C54.9243 44.5733 54.7361 44.7605 54.5478 44.9476C53.7322 45.6337 52.6028 45.5713 51.8499 44.8852C51.1598 44.1991 51.1598 43.0764 51.7872 42.3279C52.0381 42.0785 52.2891 41.829 52.5401 41.5795C52.791 41.33 53.042 41.1429 53.3557 40.831ZM59.9437 33.3463C57.685 33.3463 56.1791 34.7185 56.1164 36.8392C56.0537 38.9598 57.6222 40.4568 59.9437 40.4568C62.2024 40.4568 63.7082 39.0846 63.771 36.9639C63.771 34.7809 62.2652 33.3463 59.9437 33.3463Z" fill="#BC263A" stroke="white"/>
<path d="M21.8589 38.7727C15.6474 38.7727 9.43595 38.7727 3.22445 38.7727C1.5304 38.7727 0.463776 37.4005 1.27943 36.0907C1.59314 35.5917 2.47153 35.0304 3.03621 35.0304C15.6474 34.968 28.2587 34.968 40.8699 34.968C42.1248 34.968 42.8776 35.7165 42.8776 36.8392C42.8776 37.9619 42.1247 38.7727 40.8072 38.7727C34.4702 38.7727 28.1332 38.7727 21.8589 38.7727Z" fill="#BC263A" stroke="white"/>
<path d="M28.9489 27.4209C24.1177 27.4209 19.2866 27.4209 14.4554 27.4209C13.5143 27.4209 12.8241 27.0467 12.5104 26.1735C12.1967 25.3626 12.3849 24.5518 13.1378 24.0528C13.5143 23.8033 14.0789 23.6786 14.5809 23.6786C24.1177 23.6786 33.6546 23.6786 43.1914 23.6786C44.5718 23.6786 45.4502 24.4271 45.4502 25.5498C45.4502 26.6725 44.5718 27.4209 43.1914 27.4209C38.423 27.4209 33.6546 27.4209 28.9489 27.4209Z" fill="#BC263A" stroke="white"/>
<path d="M28.8233 50.1245C24.0549 50.1245 19.2237 50.1245 14.4553 50.1245C12.824 50.1245 11.7574 48.5652 12.6358 47.3177C12.9495 46.8187 13.7651 46.3821 14.3926 46.3821C24.0549 46.3198 33.7172 46.3198 43.3796 46.3198C44.5717 46.3198 45.3873 47.1306 45.3873 48.1909C45.3873 49.3136 44.5717 50.1245 43.3168 50.1245C38.4856 50.1245 33.6545 50.1245 28.8233 50.1245Z" fill="#BC263A" stroke="white"/>
<path d="M35.9761 16.0691C32.7135 16.0691 29.3881 16.0691 26.1255 16.0691C24.6197 16.0691 23.8041 15.383 23.8668 14.1356C23.8668 12.9505 24.6825 12.3268 26.1255 12.3268C32.7135 12.3268 39.3642 12.3268 45.9521 12.3268C47.3952 12.3268 48.1481 13.0129 48.2109 14.198C48.2109 15.383 47.3952 16.0691 46.0149 16.0691C42.564 16.0691 39.3014 16.0691 35.9761 16.0691Z" fill="#BC263A" stroke="white"/>
<path d="M35.9761 61.4763C32.7135 61.4763 29.3881 61.4763 26.1255 61.4763C24.6197 61.4763 23.804 60.7902 23.804 59.5428C23.804 58.3577 24.6197 57.6716 26.0628 57.6716C32.6507 57.6716 39.3014 57.6716 45.8894 57.6716C47.3325 57.6716 48.0854 58.3577 48.1481 59.5428C48.1481 60.7279 47.3325 61.4763 45.8266 61.4763C42.5013 61.4763 39.2387 61.4763 35.9761 61.4763Z" fill="#BC263A" stroke="white"/>
</svg>
