<svg width="83" height="82" viewBox="0 0 83 82" fill="none" xmlns="http://www.w3.org/2000/svg">
<path d="M30.0181 0.000152588C31.9996 0.443363 33.6343 1.57601 35.1205 2.90565C36.5571 4.23528 38.3899 4.28452 40.1733 3.74282C41.2136 3.44735 42.2044 2.95489 43.1951 2.46244C44.0372 2.06847 44.8298 1.52677 45.672 1.23129C47.8021 0.394118 49.7341 1.72375 49.8827 3.98905C50.0313 6.40209 49.2387 8.5689 48.1984 10.588C46.6132 13.592 44.7803 16.4482 43.096 19.4029C42.9474 19.6984 42.7493 19.9446 42.5016 20.3386C43.096 20.3879 43.5914 20.3879 44.0868 20.4863C46.5141 20.9788 48.1984 23.1949 47.9507 25.5094C47.703 28.0702 45.7215 29.9415 43.1456 29.9415C38.8853 29.9908 34.6746 29.9415 30.4144 29.9415C25.6092 29.9415 20.8041 29.9415 15.9989 29.9415C15.454 29.9415 15.0577 30.04 14.6614 30.4832C13.0762 32.3545 11.4415 34.2259 9.80671 36.0972C9.31133 36.6882 8.71688 36.8852 8.02336 36.5897C7.37937 36.2942 7.13168 35.7525 7.28029 35.0631C7.32983 34.7676 7.57752 34.4229 7.77567 34.1766C9.11319 32.5515 10.5002 30.9264 11.8873 29.2521C9.90578 27.8239 9.06364 25.9034 9.90578 23.5396C10.7479 21.2743 12.5313 20.3386 15.0577 20.3879C14.8596 20.0924 14.7109 19.8462 14.5623 19.5999C12.3331 16.3497 10.203 13.0503 8.76642 9.35683C8.27105 8.07644 7.92428 6.74681 7.67659 5.41717C7.52797 4.62924 7.62705 3.74282 7.87474 3.00414C8.37012 1.37903 9.85625 0.5911 11.4415 1.1328C12.4322 1.42828 13.3239 1.96998 14.2156 2.46244C15.6522 3.29961 17.1878 3.89056 18.8721 4.0383C20.2096 4.13679 21.4976 3.79207 22.4388 2.90565C23.9249 1.47752 25.5597 0.492609 27.5907 0.0493982C28.4329 0.000152588 29.2255 0.000152588 30.0181 0.000152588ZM35.6158 20.3879C36.6561 20.3879 37.5973 20.4371 38.5386 20.3879C38.7862 20.3879 39.133 20.2401 39.2321 20.0431C42.0062 16.202 44.5822 12.2623 46.4151 7.83021C46.8114 6.89454 47.059 5.86039 47.2572 4.87547C47.4553 3.89056 47.059 3.64433 46.1674 4.0383C45.7711 4.18603 45.3748 4.48151 44.9785 4.67849C43.7896 5.22019 42.6502 5.90963 41.4613 6.3036C38.2413 7.387 35.3186 6.94379 32.7922 4.58C30.2658 2.16696 27.3926 2.16696 24.8662 4.58C23.8259 5.56491 22.6865 6.25435 21.2994 6.59907C18.3767 7.33776 15.7512 6.40209 13.1753 5.02321C12.5313 4.67849 11.8873 4.33377 11.1938 3.98905C10.5993 3.69358 10.2526 3.93981 10.3516 4.53075C10.4507 5.46642 10.5993 6.40209 10.8965 7.23926C12.6799 11.9668 15.454 16.1035 18.3767 20.1416C18.4758 20.2894 18.674 20.4371 18.8226 20.4371C19.8629 20.4371 20.9031 20.4371 21.9434 20.4371C21.9434 18.1718 21.9434 16.005 21.9434 13.8874C21.9434 12.8533 22.4884 12.3116 23.3305 12.3116C24.1726 12.3116 24.7176 12.9025 24.7176 13.8874C24.7176 15.611 24.7176 17.3346 24.7176 19.0582C24.7176 19.5014 24.7176 19.9446 24.7176 20.3879C27.4917 20.3879 30.1667 20.3879 32.8913 20.3879C32.8913 20.0431 32.8913 19.7969 32.8913 19.5014C32.8913 17.5809 32.8913 15.6603 32.8913 13.7889C32.8913 12.7548 33.5848 12.1638 34.526 12.3116C35.2195 12.4101 35.6158 13.001 35.6158 13.8382C35.6158 15.9557 35.6158 18.1226 35.6158 20.3879ZM28.8292 23.0964C25.0643 23.0964 21.2499 23.0964 17.485 23.0964C16.4943 23.0964 15.5035 23.0471 14.5128 23.0964C12.9276 23.1456 11.9368 24.623 12.6304 26.0019C13.1257 27.036 14.0174 27.1838 15.0577 27.1838C24.2222 27.1838 33.4362 27.1838 42.6007 27.1838C42.9474 27.1838 43.2942 27.1838 43.6409 27.1345C44.4831 26.9868 45.0775 26.2973 45.1766 25.4602C45.3252 24.0813 44.384 23.1456 42.8483 23.1456C38.1423 23.0964 33.4857 23.0964 28.8292 23.0964Z" fill="#BC263A"/>
<path d="M47.0081 81.552C45.522 80.9611 44.2835 80.0747 43.9368 78.4003C43.8377 78.0556 43.8377 77.6616 43.8377 77.3169C43.8377 64.2668 43.8377 51.266 43.8377 38.2159C43.8377 35.7044 45.5715 33.9315 48.0979 33.9315C58.0054 33.9315 67.9129 33.9315 77.8205 33.9315C79.802 33.9315 81.2385 34.9657 81.9321 36.7878C81.9816 36.8863 82.0312 36.9848 82.1302 37.1325C82.1302 50.872 82.1302 64.6608 82.1302 78.4003C81.5853 79.9762 80.545 81.0596 78.9103 81.6013C68.2597 81.552 57.6587 81.552 47.0081 81.552ZM46.5622 57.7664C46.5622 64.1191 46.5622 70.521 46.5622 76.8737C46.5622 78.4496 47.0081 78.8435 48.5437 78.8435C58.154 78.8435 67.7643 78.8435 77.3746 78.8435C78.9598 78.8435 79.3561 78.4003 79.3561 76.8737C79.3561 64.1191 79.3561 51.4137 79.3561 38.6591C79.3561 37.1325 78.9598 36.7385 77.4242 36.7385C67.7643 36.7385 58.154 36.7385 48.4942 36.7385C46.909 36.7385 46.5127 37.1325 46.5127 38.7084C46.5622 45.061 46.5622 51.4137 46.5622 57.7664Z" fill="#BC263A"/>
<path d="M0.0494643 53.0388C0.247615 51.7092 0.346687 50.3303 0.742988 49.0499C1.43651 46.6369 2.27865 44.2239 3.12079 41.8108C3.36848 41.1214 3.86386 40.8259 4.60692 40.8752C5.25091 40.9737 5.64721 41.3184 5.74629 41.9586C5.79583 42.254 5.74629 42.648 5.59767 42.9435C4.26016 45.849 3.36848 48.9022 3.02172 52.1032C2.47681 57.2247 2.82357 62.2477 4.85461 67.0246C7.28195 72.5893 11.6908 75.8395 17.4372 77.4154C24.6697 79.3852 31.9517 79.2867 39.2337 77.6616C39.9768 77.5139 40.6208 77.5631 41.0171 78.3018C41.3638 78.8435 41.2647 79.3852 40.8189 79.8284C40.5712 80.0746 40.2245 80.2224 39.9272 80.3209C37.698 80.7148 35.4688 81.0595 33.2397 81.4535C32.9424 81.5028 32.6947 81.552 32.3975 81.6012C30.0692 81.6012 27.6914 81.6012 25.3632 81.6012C25.1155 81.552 24.8678 81.5028 24.5706 81.4535C21.9451 81.0103 19.2701 80.8133 16.6941 80.1239C7.77733 77.6616 2.32819 71.8999 0.643914 62.7402C0.396226 61.4106 0.247612 60.0317 -7.62939e-05 58.6528C0.0494613 56.7815 0.0494643 54.9101 0.0494643 53.0388Z" fill="#BC263A"/>
<path d="M30.2172 52.9894C31.3071 53.2849 32.3969 53.5311 33.4372 53.8758C35.4682 54.6145 37.1525 55.8457 38.3909 57.6185C40.6697 60.9672 39.9762 65.1531 36.7067 67.9109C34.8242 69.4867 32.6446 70.3239 30.1677 70.6194C30.1677 71.0626 30.1677 71.5058 30.1677 71.949C30.1182 72.7862 29.5237 73.4264 28.7807 73.4264C28.0376 73.4264 27.4927 72.8847 27.4431 72.0475C27.3936 71.6043 27.4431 71.1611 27.4431 70.8656C25.8579 70.3239 24.3223 69.9299 22.9352 69.2405C20.3593 67.9601 18.5759 65.9903 17.9815 63.0848C17.8824 62.6416 17.8824 62.1984 17.8824 61.7552C17.9319 61.0165 18.4768 60.524 19.1704 60.524C19.9134 60.524 20.4583 60.9672 20.5574 61.7059C21.1023 65.3008 23.5297 67.4676 27.3441 67.8124C27.3441 67.5661 27.3936 67.3692 27.3936 67.1229C27.3936 63.5772 27.3936 59.9823 27.3936 56.4366C27.3936 55.8457 27.245 55.6487 26.601 55.5502C23.0838 54.91 20.1116 53.3341 18.5264 49.9854C17.0402 46.9322 17.9319 43.288 20.706 40.9242C22.4398 39.4469 24.4213 38.5604 26.6505 38.265C27.245 38.1665 27.4431 37.9695 27.3936 37.4278C27.3441 37.1816 27.3936 36.8861 27.3936 36.6399C27.4927 35.9012 27.9881 35.4087 28.6816 35.4087C29.4246 35.4087 30.0191 35.9012 30.1182 36.6399C30.1677 37.1323 30.0686 37.8218 30.3659 38.1172C30.6631 38.4127 31.3566 38.3142 31.9015 38.462C35.5673 39.4961 38.4405 41.4167 39.5303 45.3071C39.6789 45.7996 39.7285 46.292 39.7285 46.7845C39.778 47.6216 39.1835 48.2618 38.3909 48.3111C37.6479 48.3603 36.9048 47.8186 36.9544 47.0307C37.103 43.9775 33.6849 41.3182 30.2172 41.0227C30.2172 44.9624 30.2172 49.0005 30.2172 52.9894ZM27.3441 41.0227C25.1644 40.875 21.9445 42.7956 21.0528 44.9131C20.706 45.7503 20.5079 46.7352 20.6565 47.5724C21.0528 50.3794 24.2727 52.8417 27.3441 52.8417C27.3441 48.902 27.3441 44.9624 27.3441 41.0227ZM30.2172 67.8616C32.0997 67.6154 33.7344 66.9752 35.1215 65.7441C36.8553 64.1682 37.4993 61.9029 36.5581 59.9823C35.3196 57.3723 32.9913 56.3381 30.2172 55.8949C30.2172 59.8838 30.2172 63.8235 30.2172 67.8616Z" fill="#BC263A"/>
<path d="M63.0623 40.7763C66.1832 40.7763 69.2545 40.7763 72.3754 40.7763C74.1587 40.7763 75.2981 41.8104 75.2981 43.6325C75.3476 45.3561 75.3476 47.0797 75.2981 48.8033C75.2485 50.6254 74.1587 51.6595 72.3754 51.6595C66.1336 51.6595 59.8919 51.6595 53.6501 51.6595C51.7677 51.6595 50.7274 50.5761 50.7274 48.7541C50.7274 47.0797 50.7274 45.4054 50.7274 43.731C50.7274 41.8597 51.8172 40.8255 53.7492 40.8255C56.8205 40.7763 59.9414 40.7763 63.0623 40.7763ZM72.524 43.5833C66.1831 43.5833 59.8423 43.5833 53.5015 43.5833C53.5015 45.3561 53.5015 47.129 53.5015 48.9018C59.8919 48.9018 66.1831 48.9018 72.524 48.9018C72.524 47.0797 72.524 45.3561 72.524 43.5833Z" fill="#BC263A"/>
<path d="M63.6011 63.8728C62.9571 63.8728 62.2636 63.8728 61.6196 63.8728C60.827 63.8236 60.2325 63.2819 60.2325 62.5432C60.2325 61.8045 60.827 61.2136 61.6196 61.1643C63.0066 61.1643 64.3937 61.1643 65.7808 61.1643C66.5734 61.1643 67.1183 61.7553 67.1183 62.5432C67.1183 63.2819 66.5733 63.8236 65.8303 63.8728C65.0377 63.9221 64.3441 63.8728 63.6011 63.8728Z" fill="#BC263A"/>
<path d="M73.2173 74.8042C72.5733 74.8042 71.8798 74.8535 71.2358 74.8042C70.3441 74.755 69.7992 74.164 69.7992 73.4253C69.8487 72.6867 70.4432 72.0957 71.2853 72.0957C72.5733 72.0957 73.9108 72.0957 75.1988 72.0957C76.0409 72.0957 76.6354 72.6867 76.6354 73.4746C76.6354 74.2133 76.0905 74.755 75.2483 74.8042C74.6043 74.8042 73.9108 74.755 73.2173 74.8042Z" fill="#BC263A"/>
<path d="M63.7046 55.7463C64.3981 55.7463 65.0917 55.6971 65.7852 55.7463C66.5778 55.7956 67.0732 56.288 67.0732 57.0759C67.0732 57.8639 66.5778 58.4548 65.7357 58.4548C64.3486 58.5041 62.9616 58.5041 61.5745 58.4548C60.7819 58.4548 60.1874 57.8146 60.1874 57.0759C60.1874 56.3373 60.7819 55.7463 61.5745 55.7463C62.3176 55.7463 63.0111 55.7463 63.7046 55.7463Z" fill="#BC263A"/>
<path d="M63.6011 69.3379C62.9571 69.3379 62.2636 69.3379 61.6196 69.3379C60.827 69.2887 60.2325 68.747 60.2325 68.0083C60.2325 67.2696 60.827 66.6294 61.6196 66.6294C63.0066 66.5802 64.3937 66.5802 65.7808 66.6294C66.5734 66.6294 67.1183 67.2204 67.1183 68.0083C67.1183 68.747 66.6229 69.2394 65.8303 69.3379C65.7807 69.3379 65.7312 69.3379 65.6817 69.3379C64.9386 69.3379 64.2946 69.3379 63.6011 69.3379Z" fill="#BC263A"/>
<path d="M54.142 55.7463C54.8355 55.7463 55.529 55.6971 56.2226 55.7463C57.0152 55.7956 57.5105 56.3373 57.5105 57.0759C57.5105 57.8146 56.9656 58.4056 56.2226 58.4056C54.786 58.4548 53.3989 58.4548 51.9623 58.4056C51.1697 58.4056 50.6743 57.8146 50.6743 57.0759C50.6743 56.3373 51.1697 55.7956 51.9623 55.7463C52.6558 55.7463 53.3989 55.7463 54.142 55.7463Z" fill="#BC263A"/>
<path d="M54.0924 69.3379C53.3989 69.3379 52.7054 69.3872 52.0119 69.3379C51.2193 69.2887 50.7239 68.7962 50.6743 68.0083C50.6743 67.2204 51.1697 66.6294 52.0119 66.6294C53.3989 66.5802 54.786 66.5802 56.173 66.6294C56.9656 66.6294 57.5105 67.2696 57.5105 68.0083C57.5105 68.747 56.9656 69.2887 56.173 69.3379C55.4795 69.3379 54.786 69.3379 54.0924 69.3379Z" fill="#BC263A"/>
<path d="M73.2173 69.3387C72.5238 69.3387 71.8302 69.3879 71.1367 69.3387C70.3441 69.2894 69.7992 68.7477 69.7992 68.0583C69.7992 67.3196 70.3441 66.6794 71.1367 66.6794C72.5238 66.6302 73.9604 66.6302 75.3474 66.6794C76.0905 66.6794 76.6354 67.3196 76.6354 68.0091C76.6354 68.7477 76.14 69.2894 75.3474 69.3387C74.6539 69.3387 73.9604 69.3387 73.2173 69.3387Z" fill="#BC263A"/>
<path d="M73.2173 58.4555C72.5733 58.4555 71.8798 58.4555 71.2358 58.4555C70.3937 58.4062 69.7992 57.8153 69.7992 57.0766C69.7992 56.3379 70.3937 55.747 71.1863 55.747C72.5238 55.747 73.9108 55.747 75.2483 55.747C76.0905 55.747 76.6354 56.3379 76.6354 57.0766C76.6354 57.8645 76.0409 58.4062 75.1988 58.4555C74.5548 58.5047 73.9108 58.4555 73.2173 58.4555Z" fill="#BC263A"/>
<path d="M54.1435 61.1643C54.7875 61.1643 55.481 61.1643 56.125 61.1643C56.9176 61.2136 57.5121 61.8045 57.4625 62.5432C57.4625 63.2819 56.9176 63.8236 56.125 63.8728C54.738 63.9221 53.3509 63.9221 51.9638 63.8728C51.1217 63.8728 50.6263 63.2819 50.6263 62.494C50.6263 61.706 51.1713 61.2136 52.0134 61.1643C52.0629 61.1643 52.0629 61.1643 52.1125 61.1643C52.806 61.1643 53.4995 61.1643 54.1435 61.1643Z" fill="#BC263A"/>
<path d="M73.2126 63.8728C72.5686 63.8728 71.8751 63.8728 71.2311 63.8728C70.4385 63.8236 69.8441 63.2819 69.8441 62.5432C69.8441 61.7553 70.4385 61.1643 71.2806 61.1643C72.6182 61.1643 73.9557 61.1643 75.2932 61.1643C76.1353 61.1643 76.7298 61.7553 76.7298 62.5432C76.7298 63.3311 76.1353 63.8728 75.2437 63.8728C74.5006 63.9221 73.8566 63.8728 73.2126 63.8728Z" fill="#BC263A"/>
<path d="M54.141 74.8041C53.4474 74.8041 52.7539 74.8533 52.0604 74.8041C51.1687 74.7548 50.6238 74.2131 50.6733 73.3759C50.7229 72.6372 51.2678 72.0955 52.1099 72.0463C53.4474 71.9971 54.785 71.9971 56.1225 72.0463C56.9646 72.0463 57.5095 72.6372 57.5095 73.3759C57.5095 74.1146 57.0141 74.7056 56.172 74.7548C55.4785 74.8041 54.8345 74.7548 54.141 74.8041C54.141 74.7548 54.141 74.7548 54.141 74.8041Z" fill="#BC263A"/>
<path d="M63.6551 72.0462C64.2991 72.0462 64.9926 72.0462 65.6366 72.0462C66.4787 72.0954 67.0236 72.6371 67.0236 73.3758C67.0732 74.213 66.5283 74.7547 65.6366 74.8039C64.2991 74.8532 62.912 74.8532 61.5745 74.8039C60.7324 74.8039 60.1874 74.213 60.1874 73.4743C60.1874 72.7356 60.7819 72.0954 61.624 72.0954C62.3176 71.9969 63.0111 72.0462 63.6551 72.0462Z" fill="#BC263A"/>
</svg>
